<svg xmlns="http://www.w3.org/2000/svg" viewBox="0 0 200 516.59"><defs><style>.cls-1{fill:#78c0b8;}.cls-2{fill:#fff;}</style></defs><g id="图层_2" data-name="图层 2"><g id="图层_1-2" data-name="图层 1"><path class="cls-1" d="M146.55,362.05c11.38-5.48,11.69-19.16,11.69-19.16V291.08H155.5a20,20,0,0,0,3.87-11.43V266.79h-3.31a16.2,16.2,0,0,0,2.27-4.94,26.38,26.38,0,0,0,1-7.5V243.24H158a18.14,18.14,0,0,0,3-5.41,23.62,23.62,0,0,0,1.4-8.16V217.38H106.38c-9.27-10.73-17.5-10.2-17.5-10.2H70.45l0,10.42H39.19a29.35,29.35,0,0,0-9.74,1.6c-16,5.66-16.15,21.47-16.15,21.47v12.69h7.78a22.1,22.1,0,0,0-2.4,4.14,24.5,24.5,0,0,0-2.07,10V279h3.13a10.6,10.6,0,0,0-1.83,3.86,30,30,0,0,0-1.3,8.88v10.68h1.08V365H35.6C15.26,369.92,15,389,15,389v12.17h7.3a22,22,0,0,0-4.68,6.72,29.73,29.73,0,0,0-2.71,12.56v9.79h4.35l-2,44.94H12.61v36.72H29.73a22.42,22.42,0,0,0,12.73-3.78v8.43H79.53v-7.82A16.89,16.89,0,0,0,91,513.16h45.63c25.86,0,26.86-25.38,26.86-25.38V362.05Zm-28.86-33H58.41v-3.89h59.28Zm11,146.27h-2.95v-77.7h2.95Z"/><path class="cls-2" d="M81.6,419.78a14.65,14.65,0,0,0,14.66-14.65v-1.4H69.17v-13H83.1a12.7,12.7,0,0,0,12.54-12.86v-9.13h-17v3.37A2.88,2.88,0,0,1,75.85,375H40.23a15,15,0,0,0-14.8,15.16v.54H52.91v13H41.09a15.66,15.66,0,0,0-15.66,15.66v.39H52.91v86.37H69.17V419.78Z"/><path class="cls-2" d="M27.31,482.4a3.41,3.41,0,0,1-3.37,3.3H23.1v15.77h7.15a11.07,11.07,0,0,0,10.93-10.59l3.43-63.58H29.8Z"/><path class="cls-2" d="M93.7,482.4l-2.49-55.1H76.4l3.44,63.58a11.06,11.06,0,0,0,10.93,10.59h7.14V485.7h-.83A3.42,3.42,0,0,1,93.7,482.4Z"/><path class="cls-2" d="M101.54,372.51V502.76h36A15.6,15.6,0,0,0,153,487V372.51Zm34.92,109.27a3.88,3.88,0,0,1-3.83,3.92H118.05V389.28h18.41Z"/><path class="cls-2" d="M27.06,267.35v1.08H134.94A14.06,14.06,0,0,0,149,254.36v-.6H40.65A13.58,13.58,0,0,0,27.06,267.35Z"/><path class="cls-2" d="M27.06,290.9V292H134.94A14.06,14.06,0,0,0,149,277.92v-.6H40.65A13.58,13.58,0,0,0,27.06,290.9Z"/><path class="cls-2" d="M28.21,354.55H135.42c6.87,0,12.43-5.84,12.43-13.06V301.67H28.21Zm19.6-38.89h80.24v19.39a4.8,4.8,0,0,1-4.68,4.92H47.81Z"/><path class="cls-2" d="M86.56,218.07H81v10H37.44a13.6,13.6,0,0,0-13.59,13.59V243h114.3a14.07,14.07,0,0,0,14.06-14.07v-.82H100.44A14.62,14.62,0,0,0,86.56,218.07Z"/><path class="cls-1" d="M177.13,384.27H187.8l12.2-9v6.91l-7.19,5,7.19,5V399l-12.21-9H177.13Z"/><path class="cls-1" d="M200,412.08l-22.87,10.16v-6.13l4.51-1.88V404l-4.51-1.71v-6L200,405.48Zm-14.36.48,8.89-3.7-8.89-3.36Z"/><path class="cls-1" d="M200,448.89H177.13v-4.82l14.65-12.62H177.13v-5.7H200V431l-14,12.22h14Z"/><path class="cls-1" d="M200,487.85H177.13v-5.7h9.25v-11.4h-9.25v-5.7H200v5.7h-9.19v11.4H200Z"/><path class="cls-1" d="M181.32,510.72h-4.19V493.86H200V510.5h-4.19V499.56H191V510h-4.19V499.56h-5.5Z"/><ellipse class="cls-2" cx="88.54" cy="88.52" rx="83.52" ry="83.54"/><path class="cls-1" d="M85.05,0h7a14.21,14.21,0,0,0,2.17.15,88.58,88.58,0,0,1,11.69,1.51,88.4,88.4,0,0,1,46.94,26,89.17,89.17,0,0,1,9.29,11.59A88.61,88.61,0,0,1,167,129.6,89.38,89.38,0,0,1,151.29,151c-1.86,1.88-3.81,3.66-5.84,5.36a88.09,88.09,0,0,1-51.77,20.56,15.94,15.94,0,0,0-2.49.15H85.85a17.11,17.11,0,0,0-2.48-.15,88.46,88.46,0,0,1-62.12-30.85A89.12,89.12,0,0,1,10,129.37a87.6,87.6,0,0,1-8.14-23A88.81,88.81,0,0,1,.15,93.61,18.37,18.37,0,0,0,0,91v-5a4,4,0,0,0,.07-.48c0-1.58.14-3.14.27-4.71a85.22,85.22,0,0,1,2-12.7A88.24,88.24,0,0,1,24.05,27.85a89,89,0,0,1,17-14.1A88.12,88.12,0,0,1,82.92.15,13.78,13.78,0,0,0,85.05,0Zm3.46,168.45A79.94,79.94,0,1,0,8.61,87.59C8.12,132.36,44.44,168.59,88.51,168.45Z"/><path class="cls-1" d="M154,88.5A65.44,65.44,0,1,1,89.61,23.08,65.34,65.34,0,0,1,154,88.5ZM89.57,143c1.14-.12,2.28-.1,3.42-.13q4.49-.12,8.92-.66a68.07,68.07,0,0,0,14-3,28.75,28.75,0,0,0,10-5.42,13.33,13.33,0,0,0,4.51-7.74,34.63,34.63,0,0,0,.46-10.06,22.76,22.76,0,0,0-2.44-8.37,9.93,9.93,0,0,0-3.76-4.18,3.89,3.89,0,0,0-5.85,2.53,8,8,0,0,0-.09,2.18,20.44,20.44,0,0,1,.13,2.35,2.06,2.06,0,0,1-2.25,2.26,41.32,41.32,0,0,0-5.66.61c-3.81.61-7.59,1.41-11.44,1.68a9.5,9.5,0,0,1-3.1-.19,1.33,1.33,0,0,1-1.21-1.42,44.23,44.23,0,0,1-.21-6.09,7,7,0,0,1,.51-2.34,1.88,1.88,0,0,1,1.77-1.26c.65,0,1.3-.09,2-.14a58.05,58.05,0,0,0,12.94-2.35,28,28,0,0,0,9-4.46A14.06,14.06,0,0,0,126.69,88a49.8,49.8,0,0,0,.86-6.44,31,31,0,0,0-1-10.45,14,14,0,0,0-2.17-4.6,5.7,5.7,0,0,0-2.61-2.09,2.78,2.78,0,0,0-3.9,1.7,11.08,11.08,0,0,0-.72,3.11,60.59,60.59,0,0,0,0,9.43c.14,3,.38,6.07.25,9.11a6.28,6.28,0,0,1-2.24,4.94,14.06,14.06,0,0,1-2.29,1.53,29.52,29.52,0,0,1-10.62,3.12,12.42,12.42,0,0,1-3.28,0,2.16,2.16,0,0,1-1.45-.6,7.53,7.53,0,0,1-1.75-3.51,3.28,3.28,0,0,1,2.07-3.82c.33-.14.69-.27,1-.4A14.2,14.2,0,0,0,106,83.22a19.62,19.62,0,0,0,2.78-10c.06-1.57,0-3.15-.06-4.72-.09-1.75-.22-3.49-.33-5.24a14.84,14.84,0,0,1,0-3.33,2.35,2.35,0,0,1,1.47-2,6.79,6.79,0,0,1,1.59-.42c3.7-.62,7.43-1.09,11.09-2a22.83,22.83,0,0,0,5.13-1.74,3.84,3.84,0,0,0,2.2-2.73,2.07,2.07,0,0,0-1.68-2.81,10,10,0,0,0-3.45-.14,48.25,48.25,0,0,0-8,1.57c-2.52.67-5,1.49-7.56,2.05a81.14,81.14,0,0,1-15.06,1.75,114.38,114.38,0,0,1-11.56-.26c-3.45-.26-6.89-.63-10.31-1.15A97.28,97.28,0,0,1,59,49.29a40.3,40.3,0,0,0-5.4-1.48,11,11,0,0,0-5.2.11,3.35,3.35,0,0,0-1.68,5.24,7.2,7.2,0,0,0,3.11,2.23,27,27,0,0,0,9.68,2c1.85.07,3.71.06,5.56.2a10.16,10.16,0,0,1,3.76.82,2.32,2.32,0,0,1,1.46,2.37c-.07,1.78-.09,3.56,0,5.34A57.75,57.75,0,0,0,71,73.74a28.92,28.92,0,0,0,2.76,8.8A11.76,11.76,0,0,0,79.18,88c.72.33,1.49.49,2.23.76,2.37.88,3.92,2.44,4.14,5.06a5.59,5.59,0,0,1-.85,3.66.83.83,0,0,1-.85.43c-1.67-.2-3.34-.3-5-.56a31.41,31.41,0,0,1-9.89-3,15.8,15.8,0,0,1-6.6-6,21.21,21.21,0,0,1-2.08-6.09,57.78,57.78,0,0,1-1.34-12.23,14.85,14.85,0,0,0-.27-3A3.62,3.62,0,0,0,57.51,65a4.73,4.73,0,0,0-6.17.19,9.63,9.63,0,0,0-2.87,5.64,26.82,26.82,0,0,0-.21,7.59,30.72,30.72,0,0,0,3.48,12.06,19.68,19.68,0,0,0,13.17,10.2,103.8,103.8,0,0,0,16.54,2.46,16.92,16.92,0,0,1,2.73.38,1.26,1.26,0,0,1,1,1.15c.41,2.52.8,5,1,7.59a8,8,0,0,1-.1,2.13c-.12.52-.29.63-.82.59s-1.24-.12-1.86-.15c-3.33-.16-6.67-.33-10-.53-3.54-.22-7.07-.47-10.59-.92a24.89,24.89,0,0,1-4.76-.93c-1.22-.41-1.35-.65-1.2-1.92s.27-2.39.37-3.59a6.25,6.25,0,0,0-.31-2.81A1.68,1.68,0,0,0,55.34,103c-.52,0-1,0-1.56,0A6.5,6.5,0,0,0,48,106.48a12.81,12.81,0,0,0-1.29,3.73,31.21,31.21,0,0,0-.48,7,64,64,0,0,0,.61,7.18,17,17,0,0,0,7.76,12,34.6,34.6,0,0,0,11.89,4.83A80.66,80.66,0,0,0,83.07,143C85.24,143,87.4,143,89.57,143Zm48.33-26.42.27-.43A48.17,48.17,0,0,0,140.7,111a56.78,56.78,0,0,0-2.58-50.08,47.37,47.37,0,0,0-2.62-4.24c-.31-.45-.32-.44-.65,0s-.49.64-.76.93a14.13,14.13,0,0,1-4.93,3.2c-.47.19-.48.21-.14.6a18.37,18.37,0,0,1,3.07,4.93,31.83,31.83,0,0,1,2.37,11.35,47.88,47.88,0,0,1-.78,10.55,21.72,21.72,0,0,1-4,9.7c-.23.29-.12.46.13.65a17.27,17.27,0,0,1,3.94,4.45,27.52,27.52,0,0,1,3.74,10.49C137.66,114.43,137.76,115.42,137.9,116.53Zm-98.75,0,.12,0c0-.89,0-1.77.08-2.66a28.1,28.1,0,0,1,1.1-7.11c1.21-4,3.38-7.2,7.18-9.15.37-.19.24-.35.07-.57a31.85,31.85,0,0,1-4.34-8.54A40.77,40.77,0,0,1,41.3,77.52a31.56,31.56,0,0,1,.56-8.73,16.45,16.45,0,0,1,3.56-7.38c.27-.31.13-.44-.15-.6a13.57,13.57,0,0,1-3.73-3.06c-.39-.48-.39-.48-.73,0l-.07.11a56.39,56.39,0,0,0-8.92,28.28,55,55,0,0,0,.35,9.16A56.88,56.88,0,0,0,38.32,115C38.59,115.53,38.87,116,39.15,116.53Zm48-70.91c1.9,0,3.8,0,5.7-.13,3.64-.19,7.28-.49,10.9-1a55.66,55.66,0,0,0,8.29-1.6,8.74,8.74,0,0,0,2.54-1.07,1.11,1.11,0,0,0,.54-.87,4,4,0,0,0-2.61-4.26,10.28,10.28,0,0,0-4.61-.41c-1.44.11-2.83.51-4.25.75A81.45,81.45,0,0,1,90.81,38c-4.16,0-8.31-.09-12.46-.34-2.28-.14-4.55-.3-6.83-.52a19,19,0,0,0-4.83-.21,6.94,6.94,0,0,0-3.4,1.2A2.57,2.57,0,0,0,63.08,42a5.11,5.11,0,0,0,1.52,1A20,20,0,0,0,70,44.44,130.38,130.38,0,0,0,87.17,45.62Z"/><path class="cls-1" d="M91.54,136.31a105.24,105.24,0,0,1-17.12-1.17,39,39,0,0,1-10-2.88,16.73,16.73,0,0,1-7.87-6.76,4.26,4.26,0,0,1,1.31-5.7,3.5,3.5,0,0,1,2.48-.49c4.21.67,8.42,1.25,12.66,1.71,2.8.31,5.61.54,8.42.76a158.4,158.4,0,0,0,16,.41,72.33,72.33,0,0,0,16.45-2,3.9,3.9,0,0,1,4.74,4.34,6.4,6.4,0,0,1-1.85,3.58,18.85,18.85,0,0,1-7.16,5.08,37.2,37.2,0,0,1-10.27,2.61A59.09,59.09,0,0,1,91.54,136.31Z"/><path class="cls-1" d="M90.81,85a11,11,0,0,1-7.06-2.17A11.32,11.32,0,0,1,80,77.13a23.62,23.62,0,0,1-1-5.91,38.65,38.65,0,0,1,.58-8.46c.12-.76.13-.75.9-.77,2.42,0,4.84,0,7.26-.11,2.81-.08,5.63-.21,8.44-.35a15.18,15.18,0,0,0,3-.36.58.58,0,0,1,.72.35,9.08,9.08,0,0,1,.87,2.33,30.33,30.33,0,0,1,.9,6.15,23.11,23.11,0,0,1-.48,6.32,11.92,11.92,0,0,1-2.8,5.73A9.46,9.46,0,0,1,91.92,85c-.2,0-.39,0-.58,0Zm-.06-6.92c.27,0,.54,0,.8,0A2.63,2.63,0,0,0,94,76.43a8.74,8.74,0,0,0,.56-1.73,19.19,19.19,0,0,0,.19-5.76c0-.36-.21-.44-.53-.42-2.58.14-5.15.23-7.73.25-.39,0-.57.14-.6.53a14.85,14.85,0,0,0,.06,2A12.84,12.84,0,0,0,87,76a3.14,3.14,0,0,0,2.55,2A8.58,8.58,0,0,0,90.75,78.11Z"/></g></g></svg>