<svg xmlns="http://www.w3.org/2000/svg" viewBox="0 0 787.83 200"><defs><style>.cls-1{fill:#0080ff;}.cls-2{fill:#fff;}</style></defs><g id="图层_2" data-name="图层 2"><g id="图层_1-2" data-name="图层 1"><path class="cls-1" d="M709.11,12s-12.26,1.48-14.17,5V7.8H657.6l-.12,15.79s-11.26.56-14.74,4.42V14.73H585.5s-7-8.86-13.6-8.86H550.3V14.5H316l-1,2.84H297.81V14.05l-67.59.34-7.31,18h-13v68.13h9.73V168h95.09s12.82-2.72,14.74-6.81A14.61,14.61,0,0,0,341.79,168h72.09s13.31-5.9,15.76-10.84V167h88.5a25.41,25.41,0,0,0,13.6-14v13.51h67.49s13.94-5.35,16.08-16.12H624s8.07-.23,9.77-2.62v15.79h17.67s5.4-.68,6.3-1.71v5.45H760.17s18.67-4.54,21.25-23.39V48.11h6.41V12Zm-345,96-16.53-.27,8.77-44.93L371.9,92.9Zm65.24-6.14-.2-32.25,8.44,19Z"/><path class="cls-2" d="M244.38,44.44l9.07-20.69H235.28l-5.8,13.67a6.86,6.86,0,0,1-6.32,4.21h-5.41V55.09h10.42A17.72,17.72,0,0,0,244.38,44.44Z"/><polygon class="cls-2" points="235.28 57.87 227.7 75.75 217.75 75.75 217.75 89.21 227.38 89.21 227.38 158.13 244.04 158.13 244.04 79.34 253.45 57.87 235.28 57.87"/><path class="cls-2" d="M255,61.12h40.56a10.08,10.08,0,0,0,9.67-7.33h9.33a17.61,17.61,0,0,0,12.7-5.43H349V34.54H334.52l5.3-12.1H321.65l-5.79,13.67a6.89,6.89,0,0,1-6.33,4.22h-3.9V26.93h-12.3V46.34h-7.11V22.15H272.58V46.34h-6.84V26.93H253.45V61.12Z"/><path class="cls-2" d="M253.45,80.31v2.75h40.43a11.54,11.54,0,0,0,11.48-11.59V68.08h-39.8A12.17,12.17,0,0,0,253.45,80.31Z"/><path class="cls-2" d="M345.29,138.68l-9.62-32.62,12.27-47.12H332.66L327.55,78.5l-4-13.64H308l12.19,41.68-7.82,30a5.48,5.48,0,0,1-5.3,4.12H286.27V131.1h7.61a11.54,11.54,0,0,0,11.48-11.59v-3.39H286.27V105.56h7.61A11.54,11.54,0,0,0,305.36,94v-3.4h-39.8a12.17,12.17,0,0,0-12.11,12.23v2.76h16.79v10.56h-4.68a12.17,12.17,0,0,0-12.11,12.23v2.75h16.79v9.54h-6.82a11.77,11.77,0,0,0-11.71,11.83v4.05h58.46a16.06,16.06,0,0,0,15.51-12.08l2.66-10.2,4.3,14.7a10.48,10.48,0,0,0,10.05,7.58h10v-15.2H348.8A3.66,3.66,0,0,1,345.29,138.68Z"/><path class="cls-2" d="M362.18,23.75V27.4a13,13,0,0,0,12.94,13.06H404V90.75H384.23l-9.94,20.85a7.45,7.45,0,0,1-6.71,4.26h-6.09V131.1h13a18.19,18.19,0,0,0,16.4-10.4L404,93.17v40.4a6.11,6.11,0,0,1-6.08,6.14H387.39a16,16,0,0,0-15.95,16.1v.61h34.72a16.63,16.63,0,0,0,16.55-16.71h0v-116H362.18Z"/><path class="cls-2" d="M392.18,85.24h9.34V68.66h-4.28a6.84,6.84,0,0,1-6.23-4l-1.75-3.88a23.88,23.88,0,0,0-21.74-14.12h-4.47l11.87,27.26A18.85,18.85,0,0,0,392.18,85.24Z"/><path class="cls-2" d="M428.51,23.75V27.4a13,13,0,0,0,12.93,13.06h28.91V90.75H450.56l-9.94,20.85a7.45,7.45,0,0,1-6.71,4.26h-6.1V131.1h13a18.18,18.18,0,0,0,16.4-10.4l13.15-27.53v40.4a6.12,6.12,0,0,1-6.08,6.14H453.71a16,16,0,0,0-15.95,16.1v.61h34.72A16.64,16.64,0,0,0,489,139.71h0v-116H428.51Z"/><path class="cls-2" d="M458.5,85.24h9.35V68.66h-4.28a6.84,6.84,0,0,1-6.24-4l-1.75-3.88a23.88,23.88,0,0,0-21.74-14.12h-4.47l11.88,27.26A18.84,18.84,0,0,0,458.5,85.24Z"/><path class="cls-2" d="M618.39,38.3a12.41,12.41,0,0,0,12.35-12.46V24.48H577.68a12.77,12.77,0,0,0-12.31-9.55h-6.16v9.55H505.12V137.14a4.08,4.08,0,0,1-4.06,4.1h-1.8v13.83h9.85a12.88,12.88,0,0,0,12.81-12.94V38.3Z"/><path class="cls-2" d="M627.16,72.81l-1.82-4.67a11.28,11.28,0,0,0-10.51-7.24h-1.9V58h6.35A11.58,11.58,0,0,0,630.8,46.36v-.28H612.93V40.69H597.47v5.39h-7.62A11.85,11.85,0,0,0,578.06,58h19.41V60.9H587.14l-4.39,11.3a3.07,3.07,0,0,1-2.87,2h-3.82a2.15,2.15,0,0,1-2-1.37l-1.81-4.67a11.28,11.28,0,0,0-10.51-7.24h-1.91V58h6.36a11.58,11.58,0,0,0,11.52-11.63v-.28H559.83V40.69H544.38v5.39h-7.62A11.85,11.85,0,0,0,525,58h19.41V60.9H534.05l-4.39,11.3a3.08,3.08,0,0,1-2.88,2h-2.91V86.1h3.62a11.58,11.58,0,0,0,10.71-7.25l6.18-15.23V90.23h15.45V65.41l6.77,16.66a6.43,6.43,0,0,0,6,4h8a11.57,11.57,0,0,0,10.71-7.25l6.18-15.23V90.23h15.46V65.41l6.76,16.66a6.44,6.44,0,0,0,6,4h7.06V74.18h-3.56A2.13,2.13,0,0,1,627.16,72.81Z"/><path class="cls-2" d="M603.74,122.18h15.09a10.71,10.71,0,0,0,10.66-10.77v-.62H603.74v-5.72h15.64A10.17,10.17,0,0,0,629.5,94.85V88.6H615.72v1.69a3.32,3.32,0,0,1-3.3,3.34H540.7a10.42,10.42,0,0,0-10.38,10.48v1h57.45v5.72H539.44a9.76,9.76,0,0,0-9.71,9.8v1.59h58v5.92h-53.4a9.38,9.38,0,0,0-9.33,9.42v1.37h62.73v3.22a2.51,2.51,0,0,1-2.5,2.52H549.51a9.47,9.47,0,0,0-9.42,9.51v1h52.29a11.41,11.41,0,0,0,11.36-11.47v-4.78h18.48a9.74,9.74,0,0,0,9.69-9.78v-1H603.74Z"/><path class="cls-2" d="M683.08,17.3h-17v16H654.68a13.83,13.83,0,0,0-13.77,13.9v1.71h25.14v9.84H647.81l-3.22,75.23a2.58,2.58,0,0,1-2.57,2.48h-.37V152h6.9a10.75,10.75,0,0,0,10.7-10.3l3.21-67.29h3.59V158h17V74.45h8.55V58.71h-8.55V48.78a10.08,10.08,0,0,0,8.7-10v-5.5h-8.7Z"/><path class="cls-2" d="M775.94,21.65h-68.1a13.91,13.91,0,0,0-13.84,14v1.75h58.63v97.39a4.62,4.62,0,0,1-4.6,4.64H724.3a15.22,15.22,0,0,0-15.14,15.29V156h45.08A14.83,14.83,0,0,0,769,141.13V37.37h6.94Z"/><path class="cls-2" d="M744,115.92V51.67H694.82v78.54h35A14.22,14.22,0,0,0,744,115.92Zm-16.28-5a5.09,5.09,0,0,1-5.07,5.12H711.1V65.85h16.6Z"/><circle class="cls-2" cx="88.47" cy="88.56" r="85.07"/><path class="cls-1" d="M0,92.76V83.32a3.79,3.79,0,0,0,.29-1.45c.06-1.49.22-3,.4-4.45A88.24,88.24,0,0,1,64.35,3.21,87.08,87.08,0,0,1,80.53.27a17.33,17.33,0,0,0,3-.27h9.44a2,2,0,0,0,.73.13,81.68,81.68,0,0,1,10.91,1.34A87.11,87.11,0,0,1,130.86,11a88.73,88.73,0,0,1,35.81,37,84.12,84.12,0,0,1,5.92,14.73,81.61,81.61,0,0,1,3.53,20.91,3.38,3.38,0,0,0,.13.9V91.6a4.23,4.23,0,0,0-.14,1.06c0,.67,0,1.33,0,2A92.15,92.15,0,0,1,174.69,105a88.22,88.22,0,0,1-62.71,68,86.19,86.19,0,0,1-17.75,3,10.19,10.19,0,0,0-2.46.27H84.65a2.74,2.74,0,0,0-.9-.15,95.49,95.49,0,0,1-9.7-1A88.31,88.31,0,0,1,8.36,125.44,86.39,86.39,0,0,1,.29,94.13,4,4,0,0,0,0,92.76ZM8.66,88A79.5,79.5,0,1,0,88.4,8.58,79.45,79.45,0,0,0,8.66,88Z"/><path class="cls-1" d="M153.37,88a65.17,65.17,0,1,1-65.2-65A65.17,65.17,0,0,1,153.37,88Zm-58.81,21.7c-1.88,0-3.34-.07-4.8-.11-3.87-.13-7.72-.43-11.56-.85a128,128,0,0,1-15.44-2.51,31.86,31.86,0,0,1-5.61-1.72,7,7,0,0,1-1.23-.67c-.94-.67-.91-1.34.09-1.88a6.6,6.6,0,0,1,1.56-.56,90,90,0,0,0,13-4.35,42.43,42.43,0,0,0,8.72-4.9,17.9,17.9,0,0,0,3.92-3.9,8.7,8.7,0,0,0,.6-9.89,18.1,18.1,0,0,0-4.14-4.91,39.94,39.94,0,0,0-7.79-5.14,77.65,77.65,0,0,0-10.51-4.47A108.69,108.69,0,0,0,50.9,60.73c-.86-.21-.92-.18-1.22.63-.59,1.61-1.18,3.22-1.75,4.83a3.06,3.06,0,0,0,.76,3.28,4.4,4.4,0,0,0,1.35,1c2.22,1.1,4.52,2.06,6.78,3.09a91.78,91.78,0,0,1,10.06,5,21,21,0,0,1,2.69,1.93,6.79,6.79,0,0,1,1.06,1.15,2.38,2.38,0,0,1,.24,2.58,8.25,8.25,0,0,1-1.34,2.07,14.39,14.39,0,0,1-4.73,3.29,30.12,30.12,0,0,1-9.14,2.53,29.67,29.67,0,0,0-8.72,2.16,18.07,18.07,0,0,0-6.32,4.16,5.15,5.15,0,0,0-.35,7.13l.15.2a14.4,14.4,0,0,0,3.26,2.92,35.27,35.27,0,0,0,6.77,3.63A90.63,90.63,0,0,0,69,117.42q6.24,1.13,12.55,1.71c3.3.3,6.6.57,9.91.63,2.34,0,4.69.2,7,0a4.17,4.17,0,0,1,.5,0c.8,0,.93.16.83.95-.22,1.81-.44,3.61-.69,5.42-.37,2.79-.76,5.58-1.13,8.37a2.69,2.69,0,0,0,1.8,3.08,6.39,6.39,0,0,0,1.76.48,33,33,0,0,0,8,.22,8.72,8.72,0,0,0,5.55-2.67,4,4,0,0,0,1.11-2.36q.29-3.34.5-6.69c.21-3.27.35-6.55.56-9.83.28-4.16.41-8.32.59-12.49.17-3.69.26-7.39.33-11.09.09-4.3.08-8.61.16-12.91.11-5.52-.16-11-.13-16.56,0-1,0-1,1-1.11,2.56-.16,5.12-.3,7.68-.48a15.63,15.63,0,0,0,3.12-.36,3.54,3.54,0,0,0,2.71-3.53c-.14-1.64-.31-3.29-.59-4.93a5,5,0,0,0-1.75-2.54.85.85,0,0,0-.62-.18c-.36,0-.72,0-1.08,0l-3.37.34c-3.95.44-7.93.63-11.9.75q-7.11.2-14.23-.25c-3.75-.23-7.48-.55-11.21-1a167.52,167.52,0,0,1-18.33-3.28c-3.92-.92-7.8-2-11.66-3.17a5.2,5.2,0,0,0-6.12,2.3c-1.08,1.83-2,3.73-3,5.61-.28.52-.22.63.36.85.75.27,1.51.54,2.27.79a183.35,183.35,0,0,0,23.3,6.07c5.86,1.12,11.76,1.94,17.7,2.5,3.71.34,7.43.52,11.15.68,1,0,1.07.11,1,1.06,0,1.49-.11,3-.2,4.46-.19,3.17-.4,6.34-.6,9.5-.18,2.7-.34,5.4-.56,8.09-.29,3.64-.62,7.26-.93,10.89q-.5,5.82-1.15,11.62c-.11,1-.21,1.09-1.16,1.12C98.11,109.54,96.13,109.76,94.56,109.67Zm30.52,21c.14-.08.24-.12.33-.18s.47-.39.69-.59a57.26,57.26,0,0,0,13.06-17.57,56.68,56.68,0,0,0,4.07-36.76,53.84,53.84,0,0,0-3.42-10.27c-.29-.64-.39-.65-.82-.1l-.19.27a12.44,12.44,0,0,1-8.74,4.81c-.77.08-1.54.12-2.31.2s-1,.23-1,1.08a2.09,2.09,0,0,0,0,.25c0,7.23,0,14.46-.14,21.69-.09,3.17-.23,6.34-.23,9.52,0,.11,0,.22,0,.33-.15,3.45-.29,6.89-.45,10.34-.12,2.42-.23,4.85-.38,7.27-.18,3-.4,5.89-.59,8.84A1.09,1.09,0,0,0,125.08,130.65Zm-31,13.55a1.31,1.31,0,0,0-.58-.7,9.75,9.75,0,0,1-1.4-1.4,11.12,11.12,0,0,1-2.4-8.77c.18-1.42.41-2.84.59-4.26.1-.8,0-.93-.81-1-1.1-.06-2.2-.09-3.3-.16q-5.91-.37-11.77-1.18a130.4,130.4,0,0,1-19.84-4.12,56,56,0,0,1-14.82-6.47.42.42,0,0,0-.54-.07,56.49,56.49,0,0,0,54.87,28.1ZM121.58,42.81a2.13,2.13,0,0,0-.9-.88,56.44,56.44,0,0,0-9.93-5.61,56.46,56.46,0,0,0-45.51.17,1.14,1.14,0,0,0-.77.58A163.26,163.26,0,0,0,121.58,42.81ZM57.3,83.11a2,2,0,0,0-.76-.48L54.06,81.5l-7.32-3.31a12.33,12.33,0,0,1-5.73-5A11.31,11.31,0,0,1,40.1,63c.41-1.08.8-2.17,1.18-3.26.28-.77.15-1-.62-1.17a.71.71,0,0,0-.88.42c-.55,1-1.12,1.91-1.63,2.89A56.45,56.45,0,0,0,32,93.82a4.71,4.71,0,0,0,.26,1.52c.1,0,.17,0,.2-.09s.26-.36.38-.54a17.06,17.06,0,0,1,3.49-3.85,33.38,33.38,0,0,1,15.47-6.73c1.52-.27,3.07-.32,4.58-.66A1.45,1.45,0,0,0,57.3,83.11Zm31.21-13A2.08,2.08,0,0,0,89,71a21.39,21.39,0,0,1,2,2.87c3.66,6.68,3.36,13.15-1.06,19.38a27.38,27.38,0,0,1-7,6.61c-.28.19-.63.32-.8.65.18.2.38.14.57.16,2.23.15,4.45.32,6.69.45,1.12.06,2.26,0,3.39,0,.61,0,.71-.11.81-.7.07-.41.11-.82.14-1.24.26-2.77.52-5.54.76-8.32.21-2.47.39-5,.58-7.42q.21-2.82.41-5.62c.14-2.06.27-4.13.39-6.19,0-.79-.06-.89-.87-1-1.73-.17-3.46-.32-5.19-.48Z"/><path class="cls-1" d="M570.52,177.05l-12.35,18.51h12.35v4.15h-22L561,181.2H549.39v-4.15Z"/><path class="cls-1" d="M597.56,177.05v22.66h-5.64v-9.16H580.63v9.16H575V177.05h5.64v9.1h11.29v-9.1Z"/><path class="cls-1" d="M609.29,177.05v22.66h-5.64V177.05Z"/><path class="cls-1" d="M621.75,199.71V189.14l-8.94-12.09h6.84l4.92,7.12,4.93-7.12h6.83l-8.94,12.09v10.57Z"/><path class="cls-1" d="M656.49,177.05h5.64v12.86q0,5-2.94,7.53c-2,1.71-4.75,2.56-8.38,2.56s-6.38-.86-8.36-2.59-3-4.22-3-7.46v-12.9h5.66v13a4.92,4.92,0,0,0,1.55,3.79,5.79,5.79,0,0,0,4.07,1.43,5.87,5.87,0,0,0,4.17-1.46,5.43,5.43,0,0,0,1.57-4.15Z"/><path class="cls-1" d="M690.1,185.45l7.28-8.4h4.91v22.66h-5.64V185.57l-6.12,7.1h-.85l-6.12-7.1v14.14h-5.64V177.05h4.9Z"/><path class="cls-1" d="M720.15,176.76a12.85,12.85,0,0,1,9.37,3.5,11,11,0,0,1,0,16.29,14.41,14.41,0,0,1-18.7,0,10.88,10.88,0,0,1-3.61-8.17,11,11,0,0,1,3.59-8.14A12.9,12.9,0,0,1,720.15,176.76Zm0,18.54a7.11,7.11,0,0,0,5.17-1.91,7.37,7.37,0,0,0,0-10,8,8,0,0,0-10.37,0,7.34,7.34,0,0,0,0,10A7.17,7.17,0,0,0,720.15,195.3Z"/><path class="cls-1" d="M757,177.05l-7.38,10.66,10,12h-7l-9-10.62v10.62H738V177.05h5.64v10.2l7.21-10.2Z"/><path class="cls-1" d="M779.51,195.56v4.15H762.8V177.05h16.48v4.15H768.45V186h10.33v4.15H768.45v5.45Z"/></g></g></svg>