<svg xmlns="http://www.w3.org/2000/svg" viewBox="0 0 664.58 200"><defs><style>.cls-1{fill:red;}.cls-2{fill:#fff;}</style></defs><g id="图层_2" data-name="图层 2"><g id="图层_1-2" data-name="图层 1"><path class="cls-1" d="M356.36,199.71v-10.6l-9-12.12h6.86l4.93,7.14,4.95-7.14H371l-9,12.12v10.6Z"/><path class="cls-1" d="M391.2,177h5.65v12.9c0,3.31-1,5.83-2.94,7.54s-4.76,2.57-8.4,2.57-6.4-.87-8.39-2.6-3-4.23-3-7.48V177h5.67v13.06a4.9,4.9,0,0,0,1.56,3.8,5.73,5.73,0,0,0,4.07,1.43,5.89,5.89,0,0,0,4.19-1.46,5.42,5.42,0,0,0,1.57-4.16Z"/><path class="cls-1" d="M419.41,195.54v4.17H402.66V177h16.52v4.16H408.32v4.77h10.36v4.16H408.32v5.46Z"/><path class="cls-1" d="M444.21,177l-12.38,18.55h12.38v4.17h-22l12.49-18.56H423V177Z"/><path class="cls-1" d="M471.32,177v22.72h-5.66v-9.19H454.35v9.19h-5.66V177h5.66v9.12h11.31V177Z"/><path class="cls-1" d="M494,195.54v4.17H477.29V177h16.52v4.16H483v4.77h10.36v4.16H483v5.46Z"/><path class="cls-1" d="M522.21,177v22.72h-4.78l-12.54-14.56v14.56h-5.66V177h5.19l12.13,13.89V177Z"/><path class="cls-1" d="M549.82,178.57v5a19.39,19.39,0,0,0-8.49-2.1,8.68,8.68,0,0,0-6.16,2,6.71,6.71,0,0,0-2.16,5.14,6.08,6.08,0,0,0,2.16,4.84,8.42,8.42,0,0,0,5.69,1.85,9.47,9.47,0,0,0,3.76-.81v-2.65h-3.29v-4.16h9v9.28a9.91,9.91,0,0,1-4.1,2.21,18.37,18.37,0,0,1-5.46.85,14.4,14.4,0,0,1-9.75-3.28A11.12,11.12,0,0,1,531,180a14.69,14.69,0,0,1,9.88-3.26A20.63,20.63,0,0,1,549.82,178.57Z"/><path class="cls-1" d="M583.45,195.54v4.17H566.14V177h5.66v18.55Z"/><path class="cls-1" d="M593.31,177v22.72h-5.66V177Z"/><path class="cls-1" d="M622.39,177v22.72h-4.78l-12.54-14.56v14.56h-5.66V177h5.19l12.13,13.89V177Z"/><path class="cls-1" d="M650,178.57v5a19.39,19.39,0,0,0-8.49-2.1,8.68,8.68,0,0,0-6.16,2,6.71,6.71,0,0,0-2.16,5.14,6.08,6.08,0,0,0,2.16,4.84,8.42,8.42,0,0,0,5.69,1.85,9.47,9.47,0,0,0,3.76-.81v-2.65h-3.29v-4.16h9v9.28a9.91,9.91,0,0,1-4.1,2.21,18.37,18.37,0,0,1-5.46.85,14.41,14.41,0,0,1-9.75-3.28,11.12,11.12,0,0,1,0-16.76A14.71,14.71,0,0,1,641,176.7,20.63,20.63,0,0,1,650,178.57Z"/><path class="cls-1" d="M664.58,17.23H632.09V9H592v8.09h-9.79c-6.4,0-14.25,6.34-14.25,6.34L575.57,9H532L503.84,59.6v8.56H455.65V55.25h37c18.6-2.81,21.13-19,21.13-19V17.05H368V7.72H328.12v9.33h-112s-.49,44-.49,65.55,18.6,25.19,18.6,25.19c-4.59,2-7.1,23.86-7.1,23.86H211.82v36.62h25.12c9.42,0,13.28-3.06,13.28-3.06v4.46h31.16c30.19,0,32.25-29.33,32.25-29.33,2.05,21.12,23.54,27.93,23.54,27.93H645.42a18.06,18.06,0,0,0,18.31-17.8V133.76H650.45A32,32,0,0,0,662,121.32c4.23-8.33-.84-17.36-.84-17.36h2.41V70.74H661c1.45-1.29,3.63-9.15,3.63-9.15ZM274.14,69.69H256V55.84h18.12Zm98.54,58.79H354.11l-5.27-18.41s19.49.12,23.84-15.6Zm2.57-58.79h-61s0-10.92-3.87-14.08h89.47S383.58,57,375.25,69.69Zm128.59,58.79H456.49V107.79h47.35Z"/><path class="cls-2" d="M302.2,69.84a14.61,14.61,0,0,0-14.82-14.4h-3V80.05H244.78V44.35h94.15a16.88,16.88,0,0,0,17.12-16.63V18.36H338.22v4.27A4.45,4.45,0,0,1,333.7,27H227V84.56a14.06,14.06,0,0,0,14.26,13.85h43.16v35.7a7.73,7.73,0,0,1-7.85,7.62H261.19v17.33H281.6c11.38,0,20.6-9,20.6-20V98.41h46.18a12.13,12.13,0,0,0,12.31-12V80.05H302.2Z"/><path class="cls-2" d="M344.81,137.83l-5.36-20.72a13.09,13.09,0,0,0-12.76-9.66H316.44l9,36.44a18.32,18.32,0,0,0,17.89,13.7h14.11V141.52h-7.77A5,5,0,0,1,344.81,137.83Z"/><path class="cls-2" d="M253.68,107.45a13.21,13.21,0,0,0-12.87,9.75l-5.34,20.63a5,5,0,0,1-4.87,3.69h-7.77v16.07h14.11a18.29,18.29,0,0,0,17.88-13.7l9-36.44Z"/><path class="cls-2" d="M444.91,44.58h44.22a13.39,13.39,0,0,0,13.58-13.19V26H377.46a12.36,12.36,0,0,0-12.54,12.18v6.42H422.6v94.31H406V67.71h-7.53a14.57,14.57,0,0,0-14.78,14.35v56.83H367.88v18.6h123a14.65,14.65,0,0,0,14.86-14.44v-4.16H444.91V97.29h47.35A14.5,14.5,0,0,0,507,83V78.68h-62Z"/><path class="cls-2" d="M540.62,66.37h-9L557.56,19H538.09L513.82,61.69V75.53a8.19,8.19,0,0,0,8.31,8.07h8.2l-16.82,28.17v8a8.79,8.79,0,0,0,8.9,8.65H547.9a17,17,0,0,0,17.18-16.7H533.33l36-59.34H549Z"/><path class="cls-2" d="M513.82,155.32v3.8H551.9a13.49,13.49,0,0,0,13.68-13.29v-4H527.65A13.64,13.64,0,0,0,513.82,155.32Z"/><path class="cls-2" d="M640.74,42.93a12.66,12.66,0,0,0,12.83-12.47V27.1H621.19V19.5H602.46v7.6H584.17A12.39,12.39,0,0,0,571.6,39.31v3.62h30.86V55.44H585.07a13.29,13.29,0,0,0-13.47,13.1v2.74h68a13.82,13.82,0,0,0,14-13.62V55.44H621.19V42.93Z"/><path class="cls-2" d="M585.61,93a15.25,15.25,0,0,0,13.48-8l5.23-9.8H586.25l-1.92,3.24a4.81,4.81,0,0,1-4.16,2.34h-9.74V93h15.18Z"/><path class="cls-2" d="M639,78.5l-1.92-3.24H619l5.24,9.8a15.25,15.25,0,0,0,13.48,8h15.17V80.84h-9.74A4.83,4.83,0,0,1,639,78.5Z"/><path class="cls-2" d="M626.44,142.18l-1.93-1.36,24.37-19.89a9.76,9.76,0,0,0,3.63-7.56h0a10,10,0,0,0-10.16-9.87H599.83L604.32,95H586.25L580,107.82h-9.27v14H583a11.89,11.89,0,0,0,8.77-3.83H625.8l-15.55,13a31.78,31.78,0,0,0-16-4.3h-16L598,141.17l-.88.73a10,10,0,0,1-6.43,2.32H571.29v15.52h18.86a31.21,31.21,0,0,0,19.71-7l1.83-1.5,4.54,3.35a26.1,26.1,0,0,0,15.69,5l8.63-.08a12.26,12.26,0,0,0,12.32-12.08v-3.29H632.93A11.35,11.35,0,0,1,626.44,142.18Z"/><circle class="cls-2" cx="89.07" cy="89.63" r="83.9"/><path class="cls-1" d="M178.14,84.89v8.2a7.83,7.83,0,0,0-.1.83,68.6,68.6,0,0,1-1.2,10.88A88.13,88.13,0,0,1,167.17,132a89.49,89.49,0,0,1-43.33,39.05,87.88,87.88,0,0,1-28.6,6.8,7.79,7.79,0,0,0-2,.25H85.05c-.24,0-.48-.11-.73-.13l-3.5-.31a76.91,76.91,0,0,1-11.31-1.77,88.39,88.39,0,0,1-46.26-27,88.65,88.65,0,0,1-23-53.41A4.6,4.6,0,0,0,0,94.1V83.88a4.91,4.91,0,0,0,.28-1.47,76.1,76.1,0,0,1,1.26-9.87A88.42,88.42,0,0,1,28.83,23.42,88.74,88.74,0,0,1,81.22.25,19.2,19.2,0,0,0,84.05,0H94.26a5,5,0,0,0,.66.11,78.5,78.5,0,0,1,10.37,1.26A89.19,89.19,0,0,1,176.6,72,69.51,69.51,0,0,1,178,84.06C178,84.34,178.11,84.61,178.14,84.89Zm-89,84.39c43.74.18,79.92-35.35,80.29-79.58A80.3,80.3,0,1,0,8.83,89C8.81,133.33,45,169.47,89.14,169.28Z"/><path class="cls-1" d="M155,89A65.9,65.9,0,1,1,89.29,23.13,65.87,65.87,0,0,1,155,89ZM92.65,120.89c-.09,1.81-.11,3.62-.15,5.43-.07,3.43,0,6.87-.07,10.3a6.48,6.48,0,0,0,3.91,6.21,9.25,9.25,0,0,0,6.93.42,10.75,10.75,0,0,0,5.7-3.9,8.86,8.86,0,0,0,1.57-5.68q-.06-31.56,0-63.12c0-.36,0-.73,0-1.09,0-.72.14-.82.84-.86,2.81-.14,5.62-.25,8.43-.47a15.45,15.45,0,0,0,6.61-1.94,13.09,13.09,0,0,0,6.87-9.76c.21-1.42.19-1.44-1.22-1.28-3.3.36-6.61.62-9.92.86s-6.91.3-10.36.39c-3.94.12-7.87-.08-11.8-.24-2.28-.09-4.57-.23-6.84-.42-3-.24-5.94-.55-8.9-.92q-6.27-.8-12.48-2T59.5,50.14A13.62,13.62,0,0,0,53.28,50a10,10,0,0,0-8,9.29.62.62,0,0,0,.49.75l1.28.39a202,202,0,0,0,30,6.42C82.05,67.48,87,68,92,68.28c1,.06,1.11.16,1.1,1.15,0,1.92-.08,3.84-.1,5.77q0,6.24-.08,12.47c0,1-.06,1-1,1-1.65,0-3.29-.08-4.93-.16-3.68-.18-7.35-.47-11-.84-4.86-.49-9.69-1.17-14.5-2a14,14,0,0,0-5,0,9.23,9.23,0,0,0-7.59,7.9c-.2,1.38-.18,2.78-.26,4.17-.23,4-.38,8-.57,12-.06,1.28-.13,2.56-.2,3.84q-.2,3.67-.38,7.35c0,.56.06.69.63.79,1.35.23,2.69.49,4,.64a11.66,11.66,0,0,0,4.08-.17c3.82-1,6.42-3.24,7.41-7.15a10.1,10.1,0,0,0,.27-2.33c.06-2.31.11-4.62.2-6.94a3.44,3.44,0,0,1,3.22-3.45,5.57,5.57,0,0,1,1.08,0c.59,0,1.17.11,1.75.18,4.1.48,8.22.75,12.34.92,3,.12,5.91.28,8.87.2h.75c.42,0,.6.23.62.63,0,.22,0,.45,0,.67,0,1.67-.09,3.35-.09,5C92.64,113.58,92.65,117.23,92.65,120.89Zm26.71,16.33a1.42,1.42,0,0,0,.71-.31,57.14,57.14,0,0,0,20.7-72.08c-.11-.24-.14-.62-.47-.62s-.35.38-.48.61a22.33,22.33,0,0,1-5.89,7,24.49,24.49,0,0,1-13.61,5.23c-.79.06-.85.13-.88.9v.33c0,13.89-.09,27.78.08,41.67.06,4.74,0,9.48,0,14.23C119.52,135.17,119.42,136.17,119.36,137.22ZM127,46.55c-1.41-1.89-8.7-7.08-14.77-9.71A57,57,0,0,0,77.4,33.21c-6.33,1.28-16.76,5.63-18.59,7.63,7.4,1.8,14.84,3.5,22.41,4.58a204.27,204.27,0,0,0,22.9,2C111.46,47.61,125.37,47.17,127,46.55ZM51,131.21c0,.32.24.42.4.56a56.8,56.8,0,0,0,34.07,14.15c.23,0,.54.13.68-.15s-.12-.41-.23-.59a15.69,15.69,0,0,1-2.45-8.82c.08-4.68,0-9.37.15-14.05.07-2.93,0-5.86.06-8.79,0-.17,0-.34,0-.5a.6.6,0,0,0-.62-.65c-.5,0-1-.12-1.5-.13-2.59-.07-5.17-.26-7.76-.49-.78-.07-.91.06-1,.86s-.08,1.84-.2,2.75a18.65,18.65,0,0,1-18.14,16A25.48,25.48,0,0,1,51,131.21ZM38.7,115.38a.72.72,0,0,0,.12-.47c.1-1.84.21-3.68.3-5.51.19-4.07.35-8.14.57-12.21.08-1.42.08-2.84.26-4.26C41,85.44,45,80.3,52,77.63a20.55,20.55,0,0,1,11.13-.76c3.29.61,6.6,1.07,9.93,1.48,2.38.29,4.76.52,7.15.76.94.1,1.89.17,2.83.2s1-.09,1-1v-.84c0-.83-.07-.89-.9-1-2.35-.29-4.71-.53-7-.85q-9.91-1.37-19.66-3.62c-6.2-1.44-12.3-3.22-18.38-5.11-1.48-.46-1.31-.53-1.89.94a57.3,57.3,0,0,0,2.1,46.89C38.37,115,38.43,115.26,38.7,115.38Z"/></g></g></svg>