<svg xmlns="http://www.w3.org/2000/svg" viewBox="0 0 655.84 200"><defs><style>.cls-1{fill:#6ab9e1;}.cls-2{fill:#fff;}</style></defs><g id="图层_2" data-name="图层 2"><g id="图层_1-2" data-name="图层 1"><path class="cls-1" d="M449,195.55v4.16H432.69V177H438v18.52Z"/><path class="cls-1" d="M468.69,177H474V189.9c0,3.31-.93,5.83-2.78,7.54s-4.49,2.56-7.93,2.56-6-.87-7.91-2.6-2.81-4.22-2.81-7.47V177H458v13a5.05,5.05,0,0,0,1.47,3.8,5.21,5.21,0,0,0,3.84,1.43,5.35,5.35,0,0,0,3.95-1.46,5.56,5.56,0,0,0,1.48-4.16Z"/><path class="cls-1" d="M490.81,176.74a11.78,11.78,0,0,1,8.86,3.49,11.36,11.36,0,0,1,3.39,8.15,11.19,11.19,0,0,1-3.43,8.16,13.06,13.06,0,0,1-17.69,0,11.48,11.48,0,0,1,0-16.33A11.85,11.85,0,0,1,490.81,176.74Zm0,18.55a6.49,6.49,0,0,0,4.89-1.91,7.68,7.68,0,0,0,0-10,7.28,7.28,0,0,0-9.81,0,7.68,7.68,0,0,0,0,10A6.55,6.55,0,0,0,490.81,195.29Z"/><path class="cls-1" d="M531.86,177v4.15H524.1v18.53h-5.34V181.18H511V177Z"/><path class="cls-1" d="M541.42,177v22.68h-5.34V177Z"/><path class="cls-1" d="M559.68,177l9.52,22.68h-5.74l-1.77-4.48H552.1l-1.6,4.48h-5.66L553.5,177Zm.45,14.24-3.47-8.82-3.15,8.82Z"/><path class="cls-1" d="M594.16,177v22.68h-4.51l-11.83-14.53v14.53h-5.34V177h4.9l11.44,13.86V177Z"/><path class="cls-1" d="M609.84,199.71V189.13L601.39,177h6.47l4.65,7.12,4.66-7.12h6.46l-8.45,12.1v10.58Z"/><path class="cls-1" d="M632.33,177v22.68H627V177Z"/><path class="cls-1" d="M655.84,132.57s-38.68,4.52-51.73-24.67c0,0,20-31.07,40.63-38.63H630.21s6.18-37.42-30.79-37.42h-7.67S587.29,6,553.64,6V32.19H540.93s4.7-20.26,4.12-23.69H504.54S503.39,56.23,470.09,71H438.27s1.94-11.33,1.94-14.08h45.44S493.38,19.49,457,19.49H353.8V34.25S348.42,18.8,333.09,18.8H305.73l1.15-10H264.19s-1,16.83-1.92,20.76c0,0-10.6-19.88-27.31-18.5s-28.77,23.13-28.77,23.13,18.36,8.62,24.08,18.11c0,0-9.14-3.19-29.4,9.9,0,0,14.93,13.56,19.09,31.07h9.2S230.42,121.44,204,143c0,0,29.59,4.77,31.88,29.72,0,0,17.68-21.22,20.43-28.09V163H296.8v-5.49h13.74V163h40.52V146.87s6-.45,7.69,18c0,0,34.95-3.66,60-41.32,0,0,21.31,38.12,58.73,41,0,0,2.32-16.37,12.27-19.69v19.92h39.49s34.33,1.8,52.53-22c0,0,19,22.17,41.78,25.94C623.57,168.66,622.19,145.38,655.84,132.57Zm-304.15-5.44V114.94A34.83,34.83,0,0,0,350,109.1h31.58S369.69,123.61,351.69,127.13ZM397.92,71H338s10-11.29,10.64-13.41h51.51S399,69.22,397.92,71ZM490,126.39h-8.14s-14,.7-26.79-17.29H490Zm98.07-49.31s-5-6.1-7-7.16h20.6S590.38,74.56,588.09,77.08Z"/><path class="cls-2" d="M343.11,47.73a12.45,12.45,0,0,0,2.11-6.85v0a12.72,12.72,0,0,0-12.89-12.52H293.86l-.38.4a74.88,74.88,0,0,0,2.14-10.22l-21.3,0c-1.15,24.27-19.73,39.66-19.73,39.66,9.46,6,10.17,12.89,10.17,12.89a57.89,57.89,0,0,0,14.09-12.71A108.85,108.85,0,0,0,291.06,72.3,95.29,95.29,0,0,1,257.61,82c4.34,7.63,2.86,16.31,2.86,16.31,17.94,0,33.34-6,45.88-14,18.38,11.71,34,13,34,13,9.65-1.62,12.18-13.85,12.18-13.85a83.33,83.33,0,0,1-31.51-10.38A135.18,135.18,0,0,0,343.11,47.73Zm-54-4.89H321.6a61.65,61.65,0,0,1-15.53,19.48A102.45,102.45,0,0,1,289.08,42.84Z"/><path class="cls-2" d="M328.13,102.92H267.28V152h20.25v-5.15h31.26a3,3,0,0,1,3.08,3.09V152h20.26V117.55C342.13,109.54,335.94,102.92,328.13,102.92Zm-6.26,28.85H287.53v-13.4h29.13a5.36,5.36,0,0,1,5.21,5.51Z"/><path class="cls-2" d="M244.92,54.81c14.91-12.47,10.58-22.94,1.1-29.93-13.39-9.86-27,7-27,7C235.27,36.22,244.92,54.81,244.92,54.81Z"/><path class="cls-2" d="M251,94.37c.75-14-1.06-26.11-16.05-31.63-7.76-2.86-20.2,3.65-20.2,3.65,8.12,2.2,12.93,16.42,12.93,16.42C242.47,82.54,251,94.37,251,94.37Z"/><path class="cls-2" d="M239.56,97.11c-1.6,26.05-19.25,44-19.25,44,13.32,1.33,17.65,13.27,17.65,13.27s12.67-15.76,16.52-33.51S239.56,97.11,239.56,97.11Z"/><path class="cls-2" d="M436.73,97.77h46.86v.06c0-9.55-7.33-17.23-16.33-17.23H426.42a155.81,155.81,0,0,0,4.37-34.33h45.49a.44.44,0,0,0,.44-.44h0A16.77,16.77,0,0,0,460,29.1H362.73V46.27h48.8a147.2,147.2,0,0,1-5.06,34.33H362.23c0,7.9-6.65,17.17-6.65,17.17h44.53c-8.07,17.17-21.77,32.85-45,38.78,0,0,11.6,5,13,15.34,0,0,33.19-10.92,51.3-50.95,19,46.25,51.09,51.84,51.09,51.84a26.69,26.69,0,0,1,14.11-16.84C461.5,135.94,444.6,111.85,436.73,97.77Z"/><path class="cls-2" d="M533.39,18.46H513.88C509,59,481.44,76.22,481.44,76.22,493.89,80.86,491.94,95,491.94,95a62.33,62.33,0,0,0,8.82-7.18v66.27H519V61.86A163.49,163.49,0,0,0,533.39,18.46Z"/><path class="cls-2" d="M592.74,106.72c11.12-16.88,21.75-29.36,24.73-29.36A47,47,0,0,0,586.54,92a32.74,32.74,0,0,0-1.85-3.59,18.51,18.51,0,0,0-17.18-9.08A107.32,107.32,0,0,0,574,109c-10,12.78-18,18.21-18,18.21V80.08A98.86,98.86,0,0,0,577.46,59h43.13c0-9.49-7.38-17.17-16.35-17.17H583.46l-.29-5.35s-2.06-14.8-18.55-17.9V41.81H532.69V59h20.46C546.79,66.18,538,73.6,527.2,76.09V95.9a102.36,102.36,0,0,0,11.67-5.23v63A53.5,53.5,0,0,0,581,126l.75-1.33c14.27,22.73,33.8,29.85,33.8,29.85,0-8,12-15.75,12-15.75C608.41,136,598.84,120.34,592.74,106.72Z"/><circle class="cls-2" cx="87.88" cy="88.43" r="82.53"/><path class="cls-1" d="M90.5,0c21.85.46,42.94,8.74,60.1,26s25.52,38.24,25.81,62.51c-.53,24.33-9.19,45.23-26.35,62.56q-26,24.81-61.9,25.36c-24.27-.46-45.17-9-62.53-26.05C8.7,132.78-.22,111.82,0,87.32.46,38.62,39.92.22,90.5,0ZM88.16,9.78A78.37,78.37,0,0,0,9.75,87.34c-.19,21.86,7.75,40.5,22.8,56.21,15.32,15,33.72,22.64,55.13,23.13a78.45,78.45,0,1,0,.48-156.9Z"/><path class="cls-1" d="M23,88.19a65.21,65.21,0,1,1,65,65.23A64.93,64.93,0,0,1,23,88.19ZM88,143.68a55.48,55.48,0,0,0,8.57-.63c1-.14,1-.15,1.19-1.16l2.34-10.58q1.8-8.11,3.59-16.24,2.07-9.45,4.13-18.92l4-18.51c.49-2.27,1-4.53,1.45-6.8a.94.94,0,0,1,.91-.88c.68-.07,1.36-.19,2-.28a17,17,0,0,0,7.87-3.26,23.26,23.26,0,0,0,8.13-10.73,1.29,1.29,0,0,0-.21-1.44c-.76-.88-1.51-1.76-2.21-2.68a1.37,1.37,0,0,0-1.63-.55c-3.93.89-7.9,1.58-11.88,2.16-2.49.36-5,.65-7.47.92-1.39.16-2.8.27-4.2.36-1.18.07-2.37.13-3.54.23-2,.16-4,.18-6,.23-2.81.07-5.62.08-8.44-.08-2.31-.12-4.62-.18-6.93-.34s-4.89-.4-7.32-.67c-3.4-.38-6.78-.87-10.15-1.45-3.05-.52-6.07-1.17-9.09-1.79A16.43,16.43,0,0,0,48,50.44a1.78,1.78,0,0,0-1.18.67A57.76,57.76,0,0,0,40,60.49c-.36.62-.71,1.24-1,1.88s-.27.69.41.92l.16.05A176,176,0,0,0,57.66,68c.19,0,.38.07.56.12a.47.47,0,0,1,.4.67c0,.14-.06.27-.09.41Q55.7,82,52.88,94.82a13.5,13.5,0,0,0,.22,6.71,16.62,16.62,0,0,0,5.18,8.2,14.33,14.33,0,0,0,7.36,3.51c2.59.4,5.19.73,7.79,1,2.17.24,4.33.44,6.5.58,1.54.1,3.08.26,4.63.23.52,0,1,.09,1.56.12s.52.24.43.61c0,.11,0,.22-.07.33q-2.67,11.66-5.32,23.31c-.23,1-.45,1.93-.65,2.9-.14.67-.07.74.62.87.21,0,.43.09.65.11A54.54,54.54,0,0,0,88,143.68Zm55.61-56a41,41,0,0,0-.39-6.26,55.27,55.27,0,0,0-4.75-16.64,4.71,4.71,0,0,0-.32-.58.19.19,0,0,0-.34,0,2.44,2.44,0,0,0-.23.33,32.91,32.91,0,0,1-6.33,7.39,29.19,29.19,0,0,1-7,4.48,28.1,28.1,0,0,1-2.87,1.06,1,1,0,0,0-.77.86,5.59,5.59,0,0,1-.12.56c-.93,4.31-1.85,8.63-2.79,12.94q-2.23,10.26-4.49,20.53-2.7,12.27-5.41,24.56c-.2.94-.42,1.88-.62,2.83-.12.6,0,.68.59.48,0,0,0,0,.08,0a52.92,52.92,0,0,0,6.77-3.09,56,56,0,0,0,15.89-12.92,55,55,0,0,0,13.12-36.49ZM48.21,75.58c.11-.71-.23-.83-.6-.92-3.9-1-7.77-2.1-11.62-3.3-.61-.19-.69-.14-.88.48a53.11,53.11,0,0,0-2.33,13.33,57.77,57.77,0,0,0,.62,12A55.76,55.76,0,0,0,36.69,109a54.86,54.86,0,0,0,6,11,56.3,56.3,0,0,0,9.73,10.66,55,55,0,0,0,17.35,9.94c.47.17.94.33,1.41.47s.67.13.83-.43c0-.11,0-.21.07-.32q1.41-6.17,2.83-12.34c.29-1.29.59-2.58.87-3.88.15-.73.07-.81-.66-.87s-1.54-.11-2.31-.2q-4.14-.49-8.28-1.09a23.24,23.24,0,0,1-12.71-6.25A24.88,24.88,0,0,1,45.4,106a22,22,0,0,1-1.12-12.43c1-4.91,2.14-9.81,3.22-14.71C47.75,77.68,48,76.52,48.21,75.58Zm8.84-33.21A159.19,159.19,0,0,0,100.77,46a130.76,130.76,0,0,0,20.06-2.49,50.3,50.3,0,0,0-15.06-7.91A55.78,55.78,0,0,0,72.38,35,48.67,48.67,0,0,0,57.05,42.37Z"/><path class="cls-1" d="M86.39,99.48c-1.32,0-2.65.08-4,0-1.81-.15-3.64,0-5.44-.29A7,7,0,0,1,71.24,91c.49-2.46,1.08-4.9,1.63-7.35.9-4,1.82-8.06,2.71-12.1.15-.7.3-.82,1-.77,2.26.15,4.51.3,6.76.42,4.47.23,8.93.09,13.4.11,1.13,0,1.14,0,.9,1.11q-2.62,12.38-5.27,24.75c-.1.48-.19,1-.3,1.46-.16.7-.28.81-1,.82-1.57,0-3.15,0-4.72,0ZM82.64,90.7v0c.5,0,1,0,1.49,0,.72,0,.78-.07.94-.76.12-.51.23-1,.34-1.53q.81-3.8,1.61-7.6c.12-.61.09-.63-.52-.75a18.45,18.45,0,0,0-3-.12c-.86,0-.9,0-1.1.89q-.68,2.93-1.33,5.88c-.25,1.1-.5,2.2-.72,3.3-.11.55,0,.64.53.67S82.06,90.7,82.64,90.7Z"/></g></g></svg>