<svg xmlns="http://www.w3.org/2000/svg" viewBox="0 0 506.65 200"><defs><style>.cls-1{fill:#78c0b8;}.cls-2{fill:#fff;}</style></defs><g id="图层_2" data-name="图层 2"><g id="图层_1-2" data-name="图层 1"><path class="cls-1" d="M448.46,11.11V7.93H410.1v6.12H379.36s-10.2-.12-18.65,11.29V16.28H303.93S296.19,6.4,284,6.4h-14.2l.12,10.53H234.36a25.14,25.14,0,0,0-25.1,25.18V52.76H217s-4.46,6.59-4.46,13.29V78.52h3.4a26.77,26.77,0,0,0-3.52,12.36v12H214v63.3H332a24.81,24.81,0,0,0,16.36-6,22.72,22.72,0,0,0,5.48-7.14v10.57H374.2s7-.71,9.74-3.77v8.48h37.78v-7.89s6.33,4.59,14.07,4.59h44.5a26.4,26.4,0,0,0,26.36-26.44V11.11ZM314.66,130.47h-60v-3.94h60Zm155.72-2.12h-3V49.46h3Z"/><path class="cls-2" d="M422,70.08A14.86,14.86,0,0,0,436.87,55.2V53.79H409.45V40.59h14.1a12.88,12.88,0,0,0,12.7-13.05V18.27H419.09V21.7a2.92,2.92,0,0,1-2.88,2.95H380.15a15.19,15.19,0,0,0-15,15.39v.55H393v13.2H381a15.88,15.88,0,0,0-15.85,15.9v.39H393v87.69h16.46V70.08Z"/><path class="cls-2" d="M367.07,133.65a3.45,3.45,0,0,1-3.41,3.35h-.85v16h7.24a11.22,11.22,0,0,0,11.06-10.76l3.48-64.55h-15Z"/><path class="cls-2" d="M434.28,133.65l-2.52-55.94h-15l3.49,64.55A11.21,11.21,0,0,0,431.31,153h7.23V137h-.84A3.46,3.46,0,0,1,434.28,133.65Z"/><path class="cls-2" d="M442.22,22.09V154.32h36.45a15.83,15.83,0,0,0,15.61-16V22.09ZM477.57,133a3.93,3.93,0,0,1-3.88,4H458.93V39.11h18.64Z"/><path class="cls-2" d="M224.88,67v1.1h109.2a14.26,14.26,0,0,0,14.25-14.28v-.61H238.64A13.78,13.78,0,0,0,224.88,67Z"/><path class="cls-2" d="M224.88,90.87V92h109.2a14.26,14.26,0,0,0,14.25-14.28v-.61H238.64A13.77,13.77,0,0,0,224.88,90.87Z"/><path class="cls-2" d="M226.05,155.49H334.58c6.95,0,12.58-5.93,12.58-13.26V101.8H226.05ZM245.88,116h81.23v19.69a4.87,4.87,0,0,1-4.73,5h-76.5Z"/><path class="cls-2" d="M285.11,16.93h-5.6V27.11H235.39a13.78,13.78,0,0,0-13.76,13.8v1.32h115.7A14.26,14.26,0,0,0,351.57,28v-.84H299.16A14.8,14.8,0,0,0,285.11,16.93Z"/><path class="cls-2" d="M422,70.08A14.86,14.86,0,0,0,436.87,55.2V53.79H409.45V40.59h14.1a12.88,12.88,0,0,0,12.7-13.05V18.27H419.09V21.7a2.92,2.92,0,0,1-2.88,2.95H380.15a15.19,15.19,0,0,0-15,15.39v.55H393v13.2H381a15.88,15.88,0,0,0-15.85,15.9v.39H393v87.69h16.46V70.08Z"/><path class="cls-2" d="M367.07,133.65a3.45,3.45,0,0,1-3.41,3.35h-.85v16h7.24a11.22,11.22,0,0,0,11.06-10.76l3.48-64.55h-15Z"/><path class="cls-2" d="M434.28,133.65l-2.52-55.94h-15l3.49,64.55A11.21,11.21,0,0,0,431.31,153h7.23V137h-.84A3.46,3.46,0,0,1,434.28,133.65Z"/><path class="cls-2" d="M442.22,22.09V154.32h36.45a15.83,15.83,0,0,0,15.61-16V22.09ZM477.57,133a3.93,3.93,0,0,1-3.88,4H458.93V39.11h18.64Z"/><path class="cls-2" d="M224.88,67v1.1h109.2a14.26,14.26,0,0,0,14.25-14.28v-.61H238.64A13.78,13.78,0,0,0,224.88,67Z"/><path class="cls-2" d="M224.88,90.87V92h109.2a14.26,14.26,0,0,0,14.25-14.28v-.61H238.64A13.77,13.77,0,0,0,224.88,90.87Z"/><path class="cls-2" d="M226.05,155.49H334.58c6.95,0,12.58-5.93,12.58-13.26V101.8H226.05ZM245.88,116h81.23v19.69a4.87,4.87,0,0,1-4.73,5h-76.5Z"/><path class="cls-2" d="M285.11,16.93h-5.6V27.11H235.39a13.78,13.78,0,0,0-13.76,13.8v1.32h115.7A14.26,14.26,0,0,0,351.57,28v-.84H299.16A14.8,14.8,0,0,0,285.11,16.93Z"/><path class="cls-1" d="M371.19,200V189.12l-9-12.43h6.88L374,184l5-7.32h6.86l-9,12.44V200Z"/><path class="cls-1" d="M398.89,176.69,409,200h-6.1L401,195.39h-10.2l-1.7,4.61h-6l9.2-23.31Zm.48,14.63-3.69-9.06-3.35,9.06Z"/><path class="cls-1" d="M435.53,176.69V200h-4.79l-12.57-14.94V200H412.5V176.69h5.2l12.16,14.25V176.69Z"/><path class="cls-1" d="M474.32,176.69V200h-5.67v-9.43H457.3V200h-5.67V176.69h5.67v9.36h11.35v-9.36Z"/><path class="cls-1" d="M497.1,195.73V200H480.31V176.69h16.56V181H486v4.89h10.39v4.27H486v5.61Z"/><ellipse class="cls-2" cx="88.42" cy="88.39" rx="83.4" ry="83.42"/><path class="cls-1" d="M84.93,0h6.93A14.39,14.39,0,0,0,94,.15,86.23,86.23,0,0,1,105.7,1.66a88.29,88.29,0,0,1,46.88,25.91,89.68,89.68,0,0,1,9.27,11.57,88.11,88.11,0,0,1,14.92,46.1,86.39,86.39,0,0,1-.71,14.82,87.78,87.78,0,0,1-9.3,29.35,89.14,89.14,0,0,1-15.69,21.39c-1.85,1.88-3.81,3.66-5.83,5.35a88.22,88.22,0,0,1-28,15.89,87.24,87.24,0,0,1-23.66,4.64,17.2,17.2,0,0,0-2.48.15H85.73a17.2,17.2,0,0,0-2.48-.15A88.31,88.31,0,0,1,.15,93.47,18.46,18.46,0,0,0,0,90.9v-5a4,4,0,0,0,.07-.48c0-1.57.14-3.13.27-4.7a86.25,86.25,0,0,1,2-12.68A88.28,88.28,0,0,1,82.8.15,13.78,13.78,0,0,0,84.93,0Zm3.45,168.21A79.82,79.82,0,1,0,8.6,87.47C8.1,132.16,44.38,168.34,88.38,168.21Z"/><path class="cls-1" d="M153.76,88.37A65.35,65.35,0,1,1,89.48,23,65.26,65.26,0,0,1,153.76,88.37ZM89.44,142.74c1.14-.12,2.28-.1,3.42-.13q4.47-.12,8.9-.66a67.72,67.72,0,0,0,14-3,28.55,28.55,0,0,0,10-5.42,13.27,13.27,0,0,0,4.5-7.72,34.87,34.87,0,0,0,.46-10,22.83,22.83,0,0,0-2.43-8.36,9.87,9.87,0,0,0-3.76-4.18,3.89,3.89,0,0,0-5.85,2.53,8.3,8.3,0,0,0-.08,2.17,20.44,20.44,0,0,1,.13,2.35,2.06,2.06,0,0,1-2.25,2.26,39.83,39.83,0,0,0-5.65.61c-3.8.6-7.58,1.4-11.43,1.67a9.18,9.18,0,0,1-3.09-.19c-.86-.23-1.14-.54-1.21-1.42a42.52,42.52,0,0,1-.2-6.08,6.66,6.66,0,0,1,.5-2.33,1.88,1.88,0,0,1,1.77-1.26c.65,0,1.3-.1,2-.14A57.69,57.69,0,0,0,112,101a27.75,27.75,0,0,0,9-4.45,14,14,0,0,0,5.49-8.71,51.45,51.45,0,0,0,.86-6.43,31.09,31.09,0,0,0-1-10.43,14,14,0,0,0-2.17-4.6,5.79,5.79,0,0,0-2.6-2.09,2.79,2.79,0,0,0-3.9,1.7,11.17,11.17,0,0,0-.72,3.11,60.33,60.33,0,0,0,0,9.41c.14,3,.38,6.06.25,9.1A6.26,6.26,0,0,1,115,92.56a14.48,14.48,0,0,1-2.28,1.54,29.67,29.67,0,0,1-10.6,3.11,12.42,12.42,0,0,1-3.28,0,2.21,2.21,0,0,1-1.45-.6,7.53,7.53,0,0,1-1.75-3.51,3.26,3.26,0,0,1,2.06-3.8c.34-.15.69-.28,1-.41a14.09,14.09,0,0,0,7.15-5.8,19.52,19.52,0,0,0,2.78-9.95c.06-1.57,0-3.14-.06-4.71-.08-1.74-.22-3.49-.33-5.23a16.12,16.12,0,0,1,0-3.33,2.37,2.37,0,0,1,1.47-2,7.29,7.29,0,0,1,1.59-.41c3.7-.62,7.42-1.09,11.07-2a22.58,22.58,0,0,0,5.12-1.74A3.86,3.86,0,0,0,129.68,51a2.08,2.08,0,0,0-1.69-2.8,10,10,0,0,0-3.45-.14,48.22,48.22,0,0,0-8,1.57c-2.52.67-5,1.48-7.55,2a80.82,80.82,0,0,1-15,1.75,114.11,114.11,0,0,1-11.55-.26C79,52.93,75.56,52.56,72.15,52A96.68,96.68,0,0,1,58.9,49.22a40.3,40.3,0,0,0-5.4-1.48,11,11,0,0,0-5.19.11,3.35,3.35,0,0,0-1.68,5.24,7.26,7.26,0,0,0,3.11,2.22,26.68,26.68,0,0,0,9.66,1.95c1.85.07,3.71.07,5.55.21a10.15,10.15,0,0,1,3.76.81,2.35,2.35,0,0,1,1.46,2.38c-.07,1.77-.09,3.55,0,5.33a61.18,61.18,0,0,0,.75,7.64,28.88,28.88,0,0,0,2.77,8.79,11.63,11.63,0,0,0,5.4,5.46c.71.34,1.49.49,2.22.76,2.37.88,3.91,2.44,4.14,5a5.64,5.64,0,0,1-.85,3.66.83.83,0,0,1-.85.43c-1.66-.2-3.34-.31-5-.56a31.27,31.27,0,0,1-9.88-3,15.81,15.81,0,0,1-6.59-6,20.83,20.83,0,0,1-2.07-6.08A56.89,56.89,0,0,1,58.85,70a14.69,14.69,0,0,0-.27-3,3.56,3.56,0,0,0-1.16-2.1,4.71,4.71,0,0,0-6.15.18,9.57,9.57,0,0,0-2.87,5.64,26.68,26.68,0,0,0-.21,7.57,30.62,30.62,0,0,0,3.48,12,19.61,19.61,0,0,0,13.15,10.18A103.43,103.43,0,0,0,81.33,103a16.92,16.92,0,0,1,2.73.38,1.27,1.27,0,0,1,1,1.15c.4,2.52.8,5,1,7.58a7.26,7.26,0,0,1-.1,2.13c-.12.51-.28.63-.81.58s-1.24-.12-1.86-.15c-3.33-.16-6.66-.33-10-.53-3.54-.21-7.07-.46-10.58-.91a24.66,24.66,0,0,1-4.75-.94c-1.22-.4-1.35-.64-1.2-1.91s.27-2.39.37-3.58a6.25,6.25,0,0,0-.31-2.81,1.68,1.68,0,0,0-1.59-1.16c-.51,0-1,0-1.55,0a6.48,6.48,0,0,0-5.8,3.49,12.65,12.65,0,0,0-1.29,3.72,31.12,31.12,0,0,0-.48,7,63.81,63.81,0,0,0,.61,7.17,17,17,0,0,0,7.75,12A34.58,34.58,0,0,0,66.36,141,80.46,80.46,0,0,0,83,142.74C85.11,142.78,87.28,142.74,89.44,142.74Zm48.26-26.38.27-.43a51,51,0,0,0,2.53-5.14A57.1,57.1,0,0,0,144,77.18a55.69,55.69,0,0,0-6.06-16.4,47.21,47.21,0,0,0-2.62-4.23c-.31-.45-.32-.44-.64,0s-.49.63-.77.92a13.87,13.87,0,0,1-4.92,3.2c-.47.19-.47.21-.13.6a18.7,18.7,0,0,1,3.06,4.92,32,32,0,0,1,2.37,11.34A48.94,48.94,0,0,1,133.49,88a21.68,21.68,0,0,1-4,9.69c-.23.29-.11.46.13.65a17,17,0,0,1,3.93,4.44,27.41,27.41,0,0,1,3.74,10.48C137.46,114.26,137.56,115.25,137.7,116.36Zm-98.61,0,.12,0c0-.88,0-1.77.08-2.66a28,28,0,0,1,1.11-7.09c1.2-4,3.37-7.2,7.16-9.14.38-.19.24-.35.08-.57a31.94,31.94,0,0,1-4.34-8.53A40.63,40.63,0,0,1,41.24,77.4a31.35,31.35,0,0,1,.56-8.7,16.49,16.49,0,0,1,3.55-7.38c.27-.31.13-.44-.15-.59a13.53,13.53,0,0,1-3.72-3.06c-.39-.48-.39-.48-.73,0l-.07.11a56.75,56.75,0,0,0-2.42,57C38.53,115.36,38.82,115.86,39.09,116.36Zm48-70.8c1.9,0,3.8,0,5.69-.13,3.64-.19,7.27-.49,10.89-1a56.83,56.83,0,0,0,8.28-1.6,9,9,0,0,0,2.53-1.07,1.15,1.15,0,0,0,.55-.87,4,4,0,0,0-2.61-4.25,10.15,10.15,0,0,0-4.61-.41c-1.43.11-2.82.51-4.24.74a81.12,81.12,0,0,1-12.84.9c-4.15,0-8.3-.1-12.44-.35q-3.42-.19-6.82-.52a19.51,19.51,0,0,0-4.83-.2A6.9,6.9,0,0,0,63.2,38,2.57,2.57,0,0,0,63,42a5.24,5.24,0,0,0,1.52,1,19.93,19.93,0,0,0,5.36,1.42A129.94,129.94,0,0,0,87,45.56Z"/><path class="cls-1" d="M91.4,136.11a104.94,104.94,0,0,1-17.09-1.17,38.76,38.76,0,0,1-10-2.87,16.64,16.64,0,0,1-7.86-6.75,4.25,4.25,0,0,1,1.31-5.69,3.47,3.47,0,0,1,2.47-.5q6.3,1,12.64,1.71c2.8.31,5.6.55,8.41.76a157.94,157.94,0,0,0,16,.42,73.21,73.21,0,0,0,16.42-2,3.89,3.89,0,0,1,4.74,4.33,6.41,6.41,0,0,1-1.85,3.57,18.76,18.76,0,0,1-7.15,5.07,36.78,36.78,0,0,1-10.26,2.61A58.85,58.85,0,0,1,91.4,136.11Z"/><path class="cls-1" d="M90.67,84.9a10.92,10.92,0,0,1-7-2.16A11.34,11.34,0,0,1,79.91,77a23.63,23.63,0,0,1-1-5.91,39.74,39.74,0,0,1,.58-8.44c.13-.76.14-.75.91-.77,2.41,0,4.83,0,7.24-.11,2.81-.08,5.62-.21,8.43-.35a15.08,15.08,0,0,0,3-.36.59.59,0,0,1,.73.35,9.12,9.12,0,0,1,.86,2.32,31.17,31.17,0,0,1,.91,6.15,23.85,23.85,0,0,1-.48,6.31,11.89,11.89,0,0,1-2.8,5.72,9.46,9.46,0,0,1-6.53,2.93l-.57,0Zm0-6.91c.27,0,.53,0,.8,0a2.6,2.6,0,0,0,2.45-1.67,8.74,8.74,0,0,0,.56-1.73,19.12,19.12,0,0,0,.19-5.75c0-.36-.21-.44-.53-.42-2.57.14-5.14.23-7.72.25-.39,0-.56.14-.6.53a14.65,14.65,0,0,0,.06,2,13.16,13.16,0,0,0,1,4.71,3.12,3.12,0,0,0,2.55,2A6.44,6.44,0,0,0,90.62,78Z"/></g></g></svg>