<svg xmlns="http://www.w3.org/2000/svg" viewBox="0 0 200 658.27"><defs><style>.cls-1{fill:#fff;}.cls-2{fill:#6ab9e1;}</style></defs><g id="图层_2" data-name="图层 2"><g id="图层_1-2" data-name="图层 1"><circle class="cls-1" cx="94.93" cy="93.1" r="90.14"/><path class="cls-2" d="M95.67,0c23.1.48,45.39,9.24,63.53,27.49s27,40.43,27.28,66.08c-.56,25.72-9.71,47.82-27.86,66.14q-27.45,26.22-65.43,26.81C67.54,186,45.44,177,27.1,159,9.19,140.36-.24,118.21,0,92.3.48,40.82,42.2.23,95.67,0ZM93.19,10.34a82.84,82.84,0,0,0-82.89,82c-.2,23.12,8.2,42.82,24.11,59.43,16.2,15.85,35.65,23.93,58.27,24.44a82.93,82.93,0,1,0,.51-165.85Z"/><path class="cls-2" d="M24.28,93.22a68.94,68.94,0,1,1,68.68,69A68.65,68.65,0,0,1,24.28,93.22Zm68.79,58.66a58,58,0,0,0,9.06-.67c1-.14,1-.15,1.26-1.22q1.23-5.6,2.47-11.18,1.89-8.59,3.79-17.17,2.19-10,4.36-20,2.13-9.78,4.25-19.57c.52-2.39,1-4.78,1.54-7.18a1,1,0,0,1,1-.94c.72-.07,1.44-.2,2.16-.29a18,18,0,0,0,8.32-3.45,24.52,24.52,0,0,0,8.59-11.34,1.35,1.35,0,0,0-.22-1.52c-.8-.93-1.6-1.86-2.34-2.83a1.47,1.47,0,0,0-1.72-.59c-4.15.94-8.34,1.68-12.56,2.29-2.62.37-5.26.68-7.89,1-1.48.16-3,.29-4.44.38-1.25.08-2.5.14-3.75.24-2.12.17-4.25.19-6.37.25-3,.08-5.94.08-8.92-.08-2.44-.14-4.88-.2-7.33-.37s-5.16-.42-7.74-.71C73,56.5,69.38,56,65.82,55.37c-3.22-.55-6.41-1.23-9.61-1.89a17.07,17.07,0,0,0-5.48-.16,1.88,1.88,0,0,0-1.25.71,61.59,61.59,0,0,0-7.15,9.91c-.38.66-.76,1.32-1.11,2s-.29.73.43,1l.17.06A185.07,185.07,0,0,0,61,71.89l.6.13a.5.5,0,0,1,.41.71l-.09.43c-2,9-4,18-6,27.08a14.32,14.32,0,0,0,.23,7.09A17.65,17.65,0,0,0,61.6,116a15.3,15.3,0,0,0,7.79,3.71c2.74.42,5.48.76,8.23,1.07,2.29.25,4.58.46,6.88.61,1.62.11,3.25.28,4.89.25.55,0,1.1.1,1.65.13s.55.26.45.64c0,.12,0,.23-.07.35q-2.82,12.31-5.63,24.64c-.23,1-.47,2-.69,3.07-.14.7-.07.78.66.92.23,0,.46.1.69.12A60.91,60.91,0,0,0,93.07,151.88Zm58.79-59.23a44.55,44.55,0,0,0-.42-6.61,58.32,58.32,0,0,0-5-17.59,4.53,4.53,0,0,0-.34-.61c-.09-.16-.24-.16-.36,0s-.17.24-.25.36A34.65,34.65,0,0,1,138.79,76a30.67,30.67,0,0,1-7.42,4.73c-1,.43-2,.79-3,1.12a1,1,0,0,0-.82.9,4,4,0,0,1-.13.6q-1.47,6.84-3,13.68-2.37,10.85-4.75,21.7-2.85,13-5.71,26c-.22,1-.45,2-.65,3-.14.64,0,.73.62.51l.08,0a55.65,55.65,0,0,0,7.16-3.27A59.15,59.15,0,0,0,138,131.23a58.15,58.15,0,0,0,13.88-38.58ZM51,79.9c.12-.76-.24-.88-.63-1q-6.19-1.56-12.28-3.49c-.65-.2-.74-.14-.94.52A56.74,56.74,0,0,0,34.65,90a60.23,60.23,0,0,0,.66,12.72,59.36,59.36,0,0,0,3.47,12.44,57.67,57.67,0,0,0,6.31,11.57A59.25,59.25,0,0,0,55.38,138a58.13,58.13,0,0,0,18.34,10.52c.5.17,1,.34,1.5.49s.7.14.86-.45a2.09,2.09,0,0,0,.08-.34q1.5-6.52,3-13c.31-1.36.63-2.72.92-4.09.17-.78.08-.86-.69-.92s-1.63-.12-2.44-.22c-2.92-.34-5.84-.73-8.75-1.15a24.47,24.47,0,0,1-13.44-6.61A26.12,26.12,0,0,1,48,112a23.24,23.24,0,0,1-1.19-13.14c1.11-5.19,2.27-10.37,3.4-15.55C50.48,82.11,50.75,80.89,51,79.9Zm9.35-35.12a167.51,167.51,0,0,0,46.21,3.84A138.11,138.11,0,0,0,127.73,46a53.16,53.16,0,0,0-15.92-8.37A58.89,58.89,0,0,0,76.51,37,51.67,51.67,0,0,0,60.31,44.78Z"/><path class="cls-2" d="M91.33,105.16c-1.4,0-2.81.09-4.2,0-1.92-.16-3.85,0-5.75-.31a7.44,7.44,0,0,1-6.07-8.61c.52-2.6,1.14-5.18,1.72-7.77,1-4.26,1.92-8.53,2.86-12.79.17-.74.33-.87,1.12-.82,2.38.16,4.76.32,7.15.44,4.72.25,9.44.1,14.15.13,1.2,0,1.21,0,1,1.16q-2.77,13.1-5.57,26.17c-.11.51-.2,1-.32,1.54-.17.75-.3.86-1.07.87-1.66,0-3.32,0-5,0Zm-4-9.28v0h1.57c.76,0,.83-.08,1-.8.13-.54.24-1.08.35-1.62.57-2.68,1.14-5.35,1.7-8,.14-.65.11-.67-.55-.79a18.18,18.18,0,0,0-3.13-.13c-.91,0-1,0-1.16.93-.48,2.07-.94,4.15-1.41,6.22-.26,1.16-.52,2.32-.76,3.49-.11.58,0,.68.56.7S86.75,95.88,87.36,95.88Z"/><path class="cls-2" d="M155,249.64a13.18,13.18,0,0,0,2.22-7.23v.05a13.43,13.43,0,0,0-13.62-13.23H102.91l-.4.42a80,80,0,0,0,2.26-10.81l-22.52,0C81,244.52,61.4,260.79,61.4,260.79c10,6.4,10.75,13.62,10.75,13.62A61.17,61.17,0,0,0,87,261,115,115,0,0,0,100,275.61a100.69,100.69,0,0,1-35.36,10.23c4.59,8.07,3,17.24,3,17.24,19,0,35.25-6.34,48.51-14.78,19.43,12.39,36,13.79,36,13.79,10.2-1.71,12.89-14.64,12.89-14.64a88.38,88.38,0,0,1-33.32-11A143.88,143.88,0,0,0,155,249.64Zm-57.12-5.17h34.38a65.11,65.11,0,0,1-16.42,20.59A108,108,0,0,1,97.86,244.47Z"/><path class="cls-2" d="M139.13,308H74.81v51.9H96.22v-5.44h33a3.17,3.17,0,0,1,3.26,3.27v2.17h21.42V323.45C153.94,315,147.39,308,139.13,308Zm-6.61,30.49H96.22V324.32H127a5.66,5.66,0,0,1,5.51,5.83Z"/><path class="cls-2" d="M51.18,257.13c15.76-13.19,11.18-24.26,1.15-31.64-14.15-10.43-28.51,7.43-28.51,7.43C41,237.47,51.18,257.13,51.18,257.13Z"/><path class="cls-2" d="M57.59,299c.8-14.8-1.11-27.6-17-33.44-8.2-3-21.35,3.86-21.35,3.86,8.58,2.33,13.66,17.36,13.66,17.36C48.59,286.45,57.59,299,57.59,299Z"/><path class="cls-2" d="M45.51,301.85c-1.7,27.53-20.35,46.47-20.35,46.47,14.08,1.41,18.65,14,18.65,14s13.4-16.66,17.48-35.42S45.51,301.85,45.51,301.85Z"/><path class="cls-2" d="M110,450.28h49.54v.07c0-10.1-7.76-18.22-17.27-18.22H99.12a164.62,164.62,0,0,0,4.62-36.29h48.09a.47.47,0,0,0,.47-.47h0a17.74,17.74,0,0,0-17.69-17.68H31.79v18.15H83.38A156.12,156.12,0,0,1,78,432.13H31.26c0,8.35-7,18.15-7,18.15H71.3c-8.52,18.15-23,34.73-47.6,41,0,0,12.27,5.25,13.72,16.21,0,0,35.08-11.54,54.23-53.86,20.09,48.89,54,54.8,54,54.8a28.21,28.21,0,0,1,14.91-17.8C136.21,490.63,118.33,465.16,110,450.28Z"/><path class="cls-2" d="M69.79,514.45H49.17c-5.16,42.83-34.3,61.06-34.3,61.06C28,580.42,26,595.35,26,595.35a66.34,66.34,0,0,0,9.33-7.58v70.05H54.53V560.33A172.86,172.86,0,0,0,69.79,514.45Z"/><path class="cls-2" d="M132.53,607.75c11.75-17.84,23-31,26.14-31A49.66,49.66,0,0,0,126,592.15a33.71,33.71,0,0,0-2-3.79,19.59,19.59,0,0,0-18.17-9.61,114.15,114.15,0,0,0,6.85,31.36c-10.61,13.51-19,19.25-19,19.25V579.59a104.65,104.65,0,0,0,22.65-22.31H162c0-10-7.8-18.16-17.29-18.16h-22l-.31-5.65s-2.18-15.65-19.6-18.92v24.57H69.05v18.15H90.67c-6.71,7.62-16,15.47-27.43,18.09v21a108.67,108.67,0,0,0,12.34-5.54v66.57a56.57,56.57,0,0,0,44.56-29.22c.26-.47.52-.94.79-1.41,15.09,24,35.73,31.55,35.73,31.55,0-8.49,12.73-16.65,12.73-16.65C149.1,638.69,139,622.15,132.53,607.75Z"/><path class="cls-2" d="M179.79,435.57h-4.47V417h24.37v6.07h-19.9Z"/><path class="cls-2" d="M199.69,457.94V464H185.86q-5.34,0-8.1-3.15c-1.83-2.11-2.75-5.11-2.75-9s.93-6.85,2.79-9,4.53-3.2,8-3.2h13.87v6.09h-14a5.27,5.27,0,0,0-4.08,1.66,6.21,6.21,0,0,0-1.53,4.37,6.3,6.3,0,0,0,1.57,4.49,5.8,5.8,0,0,0,4.46,1.69Z"/><path class="cls-2" d="M200,483.09a13.81,13.81,0,0,1-3.76,10.08A11.87,11.87,0,0,1,187.5,497a11.71,11.71,0,0,1-8.78-3.91,15.48,15.48,0,0,1,0-20.1,11.68,11.68,0,0,1,8.79-3.89,11.81,11.81,0,0,1,8.75,3.86A13.9,13.9,0,0,1,200,483.09Zm-19.93,0a7.63,7.63,0,0,0,2.05,5.56,7.91,7.91,0,0,0,10.76,0,8.64,8.64,0,0,0,0-11.15,7.89,7.89,0,0,0-10.76,0A7.67,7.67,0,0,0,180.07,483.09Z"/><path class="cls-2" d="M199.69,529.76h-4.47v-8.82h-19.9v-6.07h19.9V506h4.47Z"/><path class="cls-2" d="M199.69,540.63H175.32v-6.07h24.37Z"/><path class="cls-2" d="M199.69,561.39l-24.37,10.82v-6.52l4.82-2V552.77L175.32,551v-6.43l24.37,9.84Zm-15.3.52,9.47-3.95-9.47-3.58Z"/><path class="cls-2" d="M199.69,600.59H175.32v-5.13L190.93,582H175.32V576h24.37v5.56l-14.9,13h14.9Z"/><path class="cls-2" d="M175.32,618.42h11.37l13-9.61v7.36L192,621.46l7.66,5.3v7.34l-13-9.61H175.32Z"/><path class="cls-2" d="M199.69,644H175.32v-6.07h24.37Z"/></g></g></svg>