<svg xmlns="http://www.w3.org/2000/svg" viewBox="0 0 200 517.06"><defs><style>.cls-1{fill:#78c0b8;}.cls-2{fill:#fff;}</style></defs><g id="图层_2" data-name="图层 2"><g id="图层_1-2" data-name="图层 1"><path class="cls-1" d="M85.24,426.83a15.3,15.3,0,0,0,15.31-15.3v-1.46H72.25V396.49H86.81a13.27,13.27,0,0,0,13.1-13.42v-9.54H82.2v3.52a3,3,0,0,1-3,3.05H42a15.65,15.65,0,0,0-15.45,15.83v.56h28.7v13.58H42.92a16.35,16.35,0,0,0-16.35,16.36v.4h28.7v90.23h17V426.83Z"/><path class="cls-1" d="M28.53,492.24A3.57,3.57,0,0,1,25,495.69h-.87v16.48H31.6A11.56,11.56,0,0,0,43,501.1l3.59-66.42H31.13Z"/><path class="cls-1" d="M97.88,492.24l-2.6-57.56H79.81L83.4,501.1a11.55,11.55,0,0,0,11.41,11.07h7.47V495.69h-.88A3.57,3.57,0,0,1,97.88,492.24Z"/><path class="cls-1" d="M106.07,377.45V513.51h37.62a16.31,16.31,0,0,0,16.1-16.5V377.45Zm36.47,114.14a4,4,0,0,1-4,4.1H123.31V395h19.23Z"/><path class="cls-1" d="M28.27,267.6v1.13H141A14.7,14.7,0,0,0,155.65,254v-.63H42.46A14.19,14.19,0,0,0,28.27,267.6Z"/><path class="cls-1" d="M28.27,292.21v1.13H141a14.7,14.7,0,0,0,14.7-14.69V278H42.46A14.19,14.19,0,0,0,28.27,292.21Z"/><path class="cls-1" d="M29.47,358.7h112c7.17,0,13-6.11,13-13.65V303.46h-125Zm20.47-40.63h83.82v20.26a5,5,0,0,1-4.89,5.14H49.94Z"/><path class="cls-1" d="M90.42,216.13H84.63v10.48H39.11A14.19,14.19,0,0,0,24.92,240.8v1.36H144.3A14.7,14.7,0,0,0,159,227.47v-.86H104.92A15.27,15.27,0,0,0,90.42,216.13Z"/><path class="cls-1" d="M176.11,380.06h11.15L200,370.63v7.22L192.49,383l7.51,5.21v7.19L187.25,386H176.11Z"/><path class="cls-1" d="M200,409.11l-23.89,10.61v-6.4l4.72-2V400.65l-4.72-1.78v-6.31L200,402.21Zm-15,.5,9.29-3.87L185,402.23Z"/><path class="cls-1" d="M200,447.56H176.11v-5l15.3-13.19h-15.3v-5.95H200v5.46L185.39,441.6H200Z"/><path class="cls-1" d="M200,488.25H176.11V482.3h9.66V470.4h-9.66v-6H200v6h-9.6v11.9H200Z"/><path class="cls-1" d="M180.48,512.15h-4.37V494.54H200v17.37h-4.38V500.49h-5v10.89h-4.38V500.49h-5.75Z"/><ellipse class="cls-2" cx="92.49" cy="92.46" rx="87.25" ry="87.27"/><path class="cls-1" d="M88.84,0H96.1a13.26,13.26,0,0,0,2.27.15,92.31,92.31,0,0,1,61.24,28.69A92.49,92.49,0,0,1,158,157.76c-1.94,2-4,3.82-6.1,5.59a92,92,0,0,1-54.08,21.48,17.31,17.31,0,0,0-2.59.15H89.68a18.75,18.75,0,0,0-2.59-.15A92.18,92.18,0,0,1,41.86,169.9a92.37,92.37,0,0,1-40-58.76A93.75,93.75,0,0,1,.15,97.78,20,20,0,0,0,0,95.1V89.89a4.46,4.46,0,0,0,.07-.51c0-1.64.15-3.28.28-4.92A90.15,90.15,0,0,1,2.46,71.2,92.54,92.54,0,0,1,25.12,29.09,92.71,92.71,0,0,1,42.91,14.37,92,92,0,0,1,86.62.15,12.68,12.68,0,0,0,88.84,0Zm3.62,176A83.5,83.5,0,1,0,9,91.5C8.48,138.26,46.43,176.11,92.46,176Z"/><path class="cls-1" d="M160.85,92.45A68.37,68.37,0,1,1,93.61,24.1,68.27,68.27,0,0,1,160.85,92.45ZM93.56,149.33c1.19-.13,2.39-.12,3.58-.15,3.12-.08,6.22-.31,9.32-.68a71.3,71.3,0,0,0,14.65-3.17,30,30,0,0,0,10.43-5.67,13.88,13.88,0,0,0,4.71-8.08,36,36,0,0,0,.48-10.51,23.68,23.68,0,0,0-2.54-8.74,10.31,10.31,0,0,0-3.93-4.37,4.06,4.06,0,0,0-6.12,2.65,8.61,8.61,0,0,0-.09,2.27,20,20,0,0,1,.14,2.45,2.15,2.15,0,0,1-2.35,2.36,43.41,43.41,0,0,0-5.91.64c-4,.63-7.93,1.48-12,1.76a10,10,0,0,1-3.23-.2,1.38,1.38,0,0,1-1.26-1.49,43.58,43.58,0,0,1-.22-6.36,7.07,7.07,0,0,1,.53-2.44,2,2,0,0,1,1.85-1.32c.68,0,1.36-.1,2-.15a60.19,60.19,0,0,0,13.51-2.45A29.25,29.25,0,0,0,126.6,101a14.72,14.72,0,0,0,5.74-9.12,52.64,52.64,0,0,0,.9-6.72,32.43,32.43,0,0,0-1.08-10.92,14.66,14.66,0,0,0-2.27-4.81,6,6,0,0,0-2.72-2.18,2.91,2.91,0,0,0-4.08,1.77,11.88,11.88,0,0,0-.75,3.26,63.38,63.38,0,0,0,0,9.84c.14,3.18.39,6.34.25,9.52a6.51,6.51,0,0,1-2.34,5.16,14.71,14.71,0,0,1-2.39,1.61,30.73,30.73,0,0,1-11.09,3.25,12.71,12.71,0,0,1-3.43,0,2.27,2.27,0,0,1-1.51-.63A7.84,7.84,0,0,1,100,97.41a3.43,3.43,0,0,1,2.16-4c.35-.15.72-.28,1.08-.42a14.77,14.77,0,0,0,7.48-6.07,20.32,20.32,0,0,0,2.91-10.4c.06-1.65,0-3.29-.06-4.93-.09-1.83-.23-3.65-.35-5.48a16.85,16.85,0,0,1,0-3.48,2.47,2.47,0,0,1,1.54-2.1,7.81,7.81,0,0,1,1.66-.44c3.87-.64,7.76-1.13,11.58-2.05a23.71,23.71,0,0,0,5.36-1.82,4,4,0,0,0,2.3-2.85c.33-1.58-.2-2.54-1.76-2.94a10.38,10.38,0,0,0-3.6-.14A48.25,48.25,0,0,0,122,51.94c-2.64.7-5.23,1.55-7.9,2.14A84.94,84.94,0,0,1,98.32,55.9a118.74,118.74,0,0,1-12.08-.27c-3.6-.26-7.19-.65-10.76-1.19a100.93,100.93,0,0,1-13.87-2.95A42.4,42.4,0,0,0,56,49.94a11.46,11.46,0,0,0-5.43.12,3.49,3.49,0,0,0-1.76,5.47A7.53,7.53,0,0,0,52,57.86a28.1,28.1,0,0,0,10.11,2C64.08,60,66,60,68,60.12a10.47,10.47,0,0,1,3.93.85,2.44,2.44,0,0,1,1.53,2.48c-.08,1.86-.1,3.72,0,5.58a63.16,63.16,0,0,0,.78,8,30.29,30.29,0,0,0,2.89,9.19,12.33,12.33,0,0,0,5.65,5.72c.75.34,1.56.51,2.33.79,2.48.91,4.09,2.55,4.33,5.28a5.85,5.85,0,0,1-.89,3.82.87.87,0,0,1-.89.46c-1.74-.21-3.49-.32-5.22-.59A32.48,32.48,0,0,1,72,98.6a16.49,16.49,0,0,1-6.9-6.26A22,22,0,0,1,63,86a60.28,60.28,0,0,1-1.4-12.78,15.33,15.33,0,0,0-.29-3.09,3.72,3.72,0,0,0-1.21-2.2,4.94,4.94,0,0,0-6.44.19,10.11,10.11,0,0,0-3,5.9,28.1,28.1,0,0,0-.22,7.93,32.18,32.18,0,0,0,3.64,12.6,20.55,20.55,0,0,0,13.76,10.65,108.23,108.23,0,0,0,17.27,2.57,18.27,18.27,0,0,1,2.85.4,1.3,1.3,0,0,1,1.1,1.2c.42,2.63.84,5.26,1,7.93a7.52,7.52,0,0,1-.11,2.22c-.12.55-.29.66-.85.61s-1.29-.12-1.94-.15c-3.48-.17-7-.34-10.44-.56-3.7-.22-7.4-.48-11.07-1a26.33,26.33,0,0,1-5-1c-1.28-.42-1.41-.68-1.26-2s.29-2.5.39-3.75a6.35,6.35,0,0,0-.32-2.93,1.73,1.73,0,0,0-1.66-1.21c-.54,0-1.08,0-1.63,0a6.75,6.75,0,0,0-6.06,3.65,13.29,13.29,0,0,0-1.35,3.9,32.11,32.11,0,0,0-.5,7.26,64.66,64.66,0,0,0,.64,7.5A17.74,17.74,0,0,0,57,142.43a36.13,36.13,0,0,0,12.42,5,83.68,83.68,0,0,0,17.35,1.84C89,149.36,91.3,149.33,93.56,149.33Zm50.49-27.61.28-.44A53.66,53.66,0,0,0,147,115.9a59.36,59.36,0,0,0-2.7-52.32,51.74,51.74,0,0,0-2.74-4.43c-.32-.46-.34-.46-.68,0a12,12,0,0,1-.8,1,14.37,14.37,0,0,1-5.14,3.34c-.49.21-.5.23-.14.63a19.38,19.38,0,0,1,3.2,5.16,33.49,33.49,0,0,1,2.48,11.85,50.31,50.31,0,0,1-.82,11,22.57,22.57,0,0,1-4.16,10.13c-.24.31-.12.48.14.69a17.7,17.7,0,0,1,4.11,4.64,28.78,28.78,0,0,1,3.91,11C143.8,119.53,143.9,120.56,144.05,121.72Zm-103.15,0,.12,0c0-.93,0-1.86.08-2.78a29.15,29.15,0,0,1,1.16-7.43c1.26-4.15,3.53-7.53,7.5-9.56.39-.19.24-.36.07-.6a33.37,33.37,0,0,1-4.54-8.92A43.1,43.1,0,0,1,43.14,81a33.17,33.17,0,0,1,.58-9.11,17.44,17.44,0,0,1,3.72-7.71c.29-.33.14-.46-.15-.63a14.11,14.11,0,0,1-3.9-3.19c-.41-.5-.41-.51-.76,0l-.08.12A58.88,58.88,0,0,0,33.24,90a57.67,57.67,0,0,0,.37,9.56A59.1,59.1,0,0,0,40,120.15C40.31,120.68,40.61,121.2,40.9,121.72ZM91.06,47.66c2,0,4,0,6-.14,3.8-.2,7.6-.51,11.38-1a59.52,59.52,0,0,0,8.67-1.68,8.93,8.93,0,0,0,2.65-1.11,1.23,1.23,0,0,0,.57-.91,4.15,4.15,0,0,0-2.73-4.45,10.64,10.64,0,0,0-4.82-.43c-1.5.11-3,.53-4.44.78a85.1,85.1,0,0,1-13.43.94c-4.34,0-8.68-.1-13-.36-2.38-.15-4.76-.32-7.14-.55a20.83,20.83,0,0,0-5-.22,7.21,7.21,0,0,0-3.55,1.26,2.68,2.68,0,0,0-.22,4.11,5.27,5.27,0,0,0,1.59,1,20.89,20.89,0,0,0,5.6,1.49A136.81,136.81,0,0,0,91.06,47.66Z"/><path class="cls-1" d="M95.62,142.39a109.65,109.65,0,0,1-17.88-1.23,40.68,40.68,0,0,1-10.48-3A17.51,17.51,0,0,1,59,131.1a4.44,4.44,0,0,1,1.37-5.95,3.59,3.59,0,0,1,2.59-.52q6.59,1.05,13.22,1.79c2.93.32,5.86.56,8.8.79a166.52,166.52,0,0,0,16.72.43,75.86,75.86,0,0,0,17.18-2,4.08,4.08,0,0,1,5,4.53,6.77,6.77,0,0,1-1.93,3.74,19.9,19.9,0,0,1-7.48,5.31,39,39,0,0,1-10.74,2.73A63.05,63.05,0,0,1,95.62,142.39Z"/><path class="cls-1" d="M94.85,88.82a11.43,11.43,0,0,1-7.36-2.26,11.88,11.88,0,0,1-3.9-6,24.87,24.87,0,0,1-1-6.18,40.8,40.8,0,0,1,.61-8.83c.13-.8.14-.79,1-.8,2.52,0,5,0,7.57-.12,2.94-.09,5.88-.22,8.82-.37a15,15,0,0,0,3.13-.38.62.62,0,0,1,.76.37,9.61,9.61,0,0,1,.9,2.43,31.69,31.69,0,0,1,1,6.43,24.85,24.85,0,0,1-.5,6.61,12.47,12.47,0,0,1-2.93,6A9.91,9.91,0,0,1,96,88.77c-.21,0-.41,0-.61,0Zm0-7.23c.28,0,.56,0,.83,0a2.74,2.74,0,0,0,2.57-1.75A9.81,9.81,0,0,0,98.79,78a20.53,20.53,0,0,0,.2-6c0-.38-.23-.46-.56-.45q-4,.23-8.08.27c-.4,0-.59.14-.62.55a16.22,16.22,0,0,0,.06,2.09,13.68,13.68,0,0,0,1,4.92,3.31,3.31,0,0,0,2.67,2.13A8,8,0,0,0,94.8,81.59Z"/></g></g></svg>