<svg xmlns="http://www.w3.org/2000/svg" viewBox="0 0 200 658.88"><defs><style>.cls-1{fill:#e7211a;}.cls-2{fill:#fff;}</style></defs><g id="图层_2" data-name="图层 2"><g id="图层_1-2" data-name="图层 1"><path class="cls-1" d="M173.21,322.54h12.34l14.11-10.25v7.85l-8.31,5.64,8.31,5.66v7.82L185.55,329H173.21Z"/><path class="cls-1" d="M199.66,362.37v6.48h-15q-5.79,0-8.79-3.37t-3-9.61q0-6.18,3-9.59t8.71-3.41h15v6.49h-15.2a5.8,5.8,0,0,0-4.43,1.77,6.55,6.55,0,0,0-1.67,4.66,6.66,6.66,0,0,0,1.71,4.79,6.33,6.33,0,0,0,4.84,1.79Z"/><path class="cls-1" d="M178.06,394.64h-4.85V375.49h26.45v18.89h-4.85V382h-5.54V393.8h-4.85V382h-6.36Z"/><path class="cls-1" d="M199.66,423l-21.6-14.16V423h-4.85V397.79l21.6,14.27V398.77h4.85Z"/><path class="cls-1" d="M199.66,454H173.21v-6.47h10.7V434.59h-10.7v-6.47h26.45v6.47H189v12.94h10.62Z"/><path class="cls-1" d="M178.06,480h-4.85V460.83h26.45v18.89h-4.85V467.3h-5.54v11.85h-4.85V467.3h-6.36Z"/><path class="cls-1" d="M199.66,512.2H173.21v-5.47l16.95-14.34H173.21v-6.47h26.45v5.93l-16.17,13.88h16.17Z"/><path class="cls-1" d="M197.82,543.77h-5.77a21.85,21.85,0,0,0,2.44-9.7q0-4.58-2.35-7.05a7.87,7.87,0,0,0-6-2.47,7.13,7.13,0,0,0-5.64,2.47,9.54,9.54,0,0,0-2.16,6.51,10.61,10.61,0,0,0,.95,4.29h3.08v-3.75h4.85v10.24H176.43a11.17,11.17,0,0,1-2.56-4.69,20.43,20.43,0,0,1-1-6.24,16.28,16.28,0,0,1,3.82-11.15,13.09,13.09,0,0,1,19.51,0q3.8,4.37,3.8,11.3A23.29,23.29,0,0,1,197.82,543.77Z"/><path class="cls-1" d="M178.06,582.24h-4.85V562.43h26.45v6.47h-21.6Z"/><path class="cls-1" d="M199.66,593.51H173.21V587h26.45Z"/><path class="cls-1" d="M199.66,626.76H173.21V621.3L190.16,607H173.21v-6.47h26.45v5.93l-16.17,13.87h16.17Z"/><path class="cls-1" d="M197.82,658.34h-5.77a21.89,21.89,0,0,0,2.44-9.71q0-4.57-2.35-7a7.91,7.91,0,0,0-6-2.47,7.16,7.16,0,0,0-5.64,2.47,9.54,9.54,0,0,0-2.16,6.51,10.65,10.65,0,0,0,.95,4.3h3.08v-3.76h4.85v10.25H176.43a11.22,11.22,0,0,1-2.56-4.7,20.43,20.43,0,0,1-1-6.24,16.26,16.26,0,0,1,3.82-11.14,13.09,13.09,0,0,1,19.51,0q3.8,4.35,3.8,11.29A23.34,23.34,0,0,1,197.82,658.34Z"/><circle class="cls-2" cx="92.6" cy="96.14" r="87.13"/><path class="cls-1" d="M187,89.12v8.61c0,.29-.11.58-.12.86A70.75,70.75,0,0,1,185.65,110a92.2,92.2,0,0,1-10.15,28.6,93.91,93.91,0,0,1-45.49,41,91.78,91.78,0,0,1-30,7.14,7.79,7.79,0,0,0-2.09.27H89.29c-.26-.05-.51-.12-.77-.15-1.22-.11-2.45-.22-3.67-.31A82,82,0,0,1,73,184.7a92.86,92.86,0,0,1-48.56-28.3A92.92,92.92,0,0,1,.29,100.33,5.12,5.12,0,0,0,0,98.78V88.06a4.78,4.78,0,0,0,.29-1.55A80.42,80.42,0,0,1,1.62,76.15,92.77,92.77,0,0,1,30.27,24.59,93.1,93.1,0,0,1,85.27.27a19.75,19.75,0,0,0,3-.27H99c.23,0,.46.1.69.12a81.2,81.2,0,0,1,10.88,1.32,93.38,93.38,0,0,1,55.12,32.39A92.52,92.52,0,0,1,185.4,75.54a72.31,72.31,0,0,1,1.5,12.71A8.66,8.66,0,0,0,187,89.12ZM93.58,177.71c45.92.19,83.9-37.11,84.29-83.54a84.3,84.3,0,1,0-168.6-.76C9.25,140,47.25,177.92,93.58,177.71Z"/><path class="cls-1" d="M162.76,93.45a69.18,69.18,0,1,1-69-69.17A69.17,69.17,0,0,1,162.76,93.45ZM97.27,126.91c-.1,1.9-.12,3.8-.16,5.71-.08,3.6,0,7.2-.07,10.81a6.79,6.79,0,0,0,4.1,6.51,9.72,9.72,0,0,0,7.28.45,11.32,11.32,0,0,0,6-4.1,9.33,9.33,0,0,0,1.65-6q-.06-33.12,0-66.26c0-.38,0-.76,0-1.14,0-.76.14-.86.87-.9,3-.15,5.91-.27,8.86-.49a16.11,16.11,0,0,0,6.93-2,13.75,13.75,0,0,0,7.22-10.25c.22-1.49.2-1.51-1.29-1.34-3.46.38-6.93.65-10.4.9-3.63.25-7.26.31-10.89.41-4.12.12-8.25-.09-12.38-.25q-3.6-.14-7.18-.44c-3.12-.25-6.24-.58-9.35-1q-6.57-.82-13.09-2.06c-4.32-.81-8.61-1.77-12.86-2.85a14.32,14.32,0,0,0-6.54-.19,10.53,10.53,0,0,0-8.35,9.76.65.65,0,0,0,.52.78l1.35.41a212.91,212.91,0,0,0,31.49,6.74c5.19.7,10.4,1.24,15.63,1.54,1,.06,1.17.17,1.15,1.2,0,2-.08,4-.1,6.07q0,6.54-.08,13.09c0,1-.06,1-1.06,1C94.75,93,93,93,91.3,92.89c-3.86-.19-7.71-.5-11.56-.89q-7.65-.77-15.21-2.11a14.7,14.7,0,0,0-5.25,0,9.66,9.66,0,0,0-8,8.29c-.21,1.45-.2,2.92-.28,4.38-.23,4.21-.4,8.42-.6,12.63-.06,1.35-.14,2.69-.21,4-.13,2.57-.27,5.14-.4,7.72,0,.58.07.71.67.82,1.41.24,2.82.51,4.25.67a11.85,11.85,0,0,0,4.28-.18c4-1,6.74-3.4,7.78-7.5a10.56,10.56,0,0,0,.28-2.44c.06-2.43.12-4.86.21-7.29a3.61,3.61,0,0,1,3.38-3.62,5.43,5.43,0,0,1,1.14,0c.61,0,1.22.11,1.83.18,4.31.51,8.63.79,13,1,3.1.13,6.2.29,9.31.21h.79a.6.6,0,0,1,.65.66c0,.24,0,.47,0,.71,0,1.75-.09,3.51-.1,5.27C97.26,119.23,97.27,123.07,97.27,126.91Zm28,17.15a1.5,1.5,0,0,0,.74-.33,60,60,0,0,0,21.74-75.67c-.12-.25-.16-.66-.5-.66s-.37.41-.5.65a23.41,23.41,0,0,1-6.19,7.34,25.62,25.62,0,0,1-14.29,5.5c-.82.06-.89.13-.92.94v.35c.06,14.58-.1,29.16.08,43.75.06,5,0,9.95,0,14.93C125.47,141.91,125.37,143,125.31,144.06Zm8-95.19c-1.48-2-9.14-7.44-15.51-10.2a59.91,59.91,0,0,0-36.53-3.81c-6.64,1.35-17.58,5.91-19.51,8,7.77,1.89,15.58,3.67,23.53,4.8a212.43,212.43,0,0,0,24,2.08C117,50,131.62,49.52,133.29,48.87ZM53.56,137.75c0,.34.25.44.42.59a59.74,59.74,0,0,0,35.77,14.85c.24,0,.56.14.71-.16s-.12-.43-.24-.62a16.43,16.43,0,0,1-2.57-9.25c.08-4.92,0-9.84.16-14.76.07-3.08,0-6.15.06-9.23,0-.17,0-.35,0-.52a.63.63,0,0,0-.65-.68c-.52,0-1-.13-1.57-.14-2.72-.07-5.44-.27-8.15-.51-.82-.08-1,.06-1,.9s-.09,1.93-.22,2.89a19.56,19.56,0,0,1-19,16.74A26.51,26.51,0,0,1,53.56,137.75ZM40.63,121.13a.75.75,0,0,0,.12-.5c.11-1.93.23-3.85.32-5.78.2-4.28.36-8.55.6-12.82.08-1.49.08-3,.27-4.47C43,89.7,47.19,84.3,54.61,81.49a21.59,21.59,0,0,1,11.68-.79c3.46.64,6.94,1.12,10.43,1.55,2.49.31,5,.55,7.5.8,1,.11,2,.17,3,.21s1-.09,1-1c0-.29,0-.59,0-.88,0-.87-.07-.93-.93-1-2.47-.3-5-.56-7.41-.89Q69.47,78,59.24,75.65C52.73,74.14,46.32,72.27,40,70.29c-1.55-.49-1.38-.56-2,1a59.82,59.82,0,0,0-3.85,28.88,59,59,0,0,0,6.06,20.35C40.28,120.72,40.34,121,40.63,121.13Z"/><path class="cls-1" d="M48.6,564.31H39.88L65.07,517H46.14l-23.6,42.66v13.86a8.07,8.07,0,0,0,8.08,8.07h8L22.24,609.73v8.06a8.65,8.65,0,0,0,8.65,8.65H55.67a16.71,16.71,0,0,0,16.71-16.71H41.51l35-59.37H56.7Z"/><path class="cls-1" d="M22.54,653.31v3.8h37a13.29,13.29,0,0,0,13.29-13.3v-3.95H36A13.45,13.45,0,0,0,22.54,653.31Z"/><path class="cls-1" d="M145.94,540.86a12.47,12.47,0,0,0,12.47-12.48V525H126.93v-7.61H108.72V525H90.94a12.23,12.23,0,0,0-12.23,12.22v3.62h30v12.51H91.82a13.11,13.11,0,0,0-13.11,13.11v2.74h66.08a13.62,13.62,0,0,0,13.62-13.62v-2.23H126.93V540.86Z"/><path class="cls-1" d="M92.34,591a14.75,14.75,0,0,0,13.1-8l5.09-9.8H93l-1.86,3.24a4.68,4.68,0,0,1-4,2.34H77.58V591H92.34Z"/><path class="cls-1" d="M144.22,576.45l-1.87-3.24H124.78l5.09,9.8A14.77,14.77,0,0,0,143,591h14.75V578.79h-9.46A4.67,4.67,0,0,1,144.22,576.45Z"/><path class="cls-1" d="M132,640.16l-1.88-1.36,23.69-19.9a9.88,9.88,0,0,0,3.53-7.57h0a9.87,9.87,0,0,0-9.88-9.87H106.16l4.37-8.5H93l-6.07,12.82h-9v14H89.76a11.42,11.42,0,0,0,8.53-3.83h33.12l-15.12,13a30.13,30.13,0,0,0-15.53-4.31H85.21l19.16,14.54-.85.73a9.58,9.58,0,0,1-6.26,2.32H78.41v15.53H96.76a29.8,29.8,0,0,0,19.15-7l1.79-1.5,4.41,3.34a24.84,24.84,0,0,0,15.25,5.06l8.39-.08a12.08,12.08,0,0,0,12-12.09V642.2H138.35A10.73,10.73,0,0,1,132,640.16Z"/><path class="cls-1" d="M103.43,273c0-8-5.71-13.9-13.67-13.9H86.22v24.69H47.7V248.23h92.18c9.19,0,15.91-8.21,15.91-17.4v-8.78H138.21v3.69c0,2.43-1,4.91-3.41,4.91H30.12v57.06c0,7.65,7.09,14.38,14.74,14.38H86.22v35.19c0,4.21-2.8,8.2-7,8.2H63.41v17.21H84.14c11.06,0,19.29-9.42,19.29-20.48V302.09h45.64c6.61,0,11.21-5.88,11.21-12.49v-5.83H103.43Z"/><path class="cls-1" d="M145.59,341.21l-5.21-20.41a12.51,12.51,0,0,0-12.4-9.36H118l8.77,36.25a17.7,17.7,0,0,0,17.39,13.5h13.12V345.11h-7A5.08,5.08,0,0,1,145.59,341.21Z"/><path class="cls-1" d="M57,311.44a12.53,12.53,0,0,0-12.51,9.34l-5.19,20.64a4.89,4.89,0,0,1-4.74,3.69H26.38v16.08H40.71a17.72,17.72,0,0,0,17.4-13.5l8.76-36.25Z"/><path class="cls-1" d="M101.93,390.74h43.79c7.29,0,12.32-6.63,12.32-13.93V372H37.14c-6.74,0-13,4.82-13,11.55v7.15H80.24V485H63.78V413.93H57.55c-7.93,0-15.09,5.66-15.09,13.59V485H27.12v18.7h120.3c8,0,13.61-7.18,13.61-15.16V485h-59.1V443.48h46.83c7.89,0,13.39-7.12,13.39-15v-3.68H101.93Z"/></g></g></svg>